<?xml version="1.0" encoding="utf-8"?>
<!-- Generator: Adobe Illustrator 15.1.0, SVG Export Plug-In . SVG Version: 6.00 Build 0)  -->
<!DOCTYPE svg PUBLIC "-//W3C//DTD SVG 1.1//EN" "http://www.w3.org/Graphics/SVG/1.1/DTD/svg11.dtd">
<svg version="1.1" id="Layer_1" xmlns="http://www.w3.org/2000/svg" xmlns:xlink="http://www.w3.org/1999/xlink" x="0px" y="0px"
	 width="1024px" height="768px" viewBox="0 0 1024 768" enable-background="new 0 0 1024 768" xml:space="preserve">
<g>
	<defs>
		<rect id="SVGID_1_" width="1024" height="768"/>
	</defs>
	<clipPath id="SVGID_2_">
		<use xlink:href="#SVGID_1_"  overflow="visible"/>
	</clipPath>
	<g clip-path="url(#SVGID_2_)">
		<g>
			<defs>
				<rect id="SVGID_3_" x="-18.377" y="-14.43" width="1061.113" height="797.403"/>
			</defs>
			<defs>
				<rect id="SVGID_4_" x="-17.912" y="-14.08" width="1060.182" height="796.703"/>
			</defs>
			<clipPath id="SVGID_5_">
				<use xlink:href="#SVGID_3_"  overflow="visible"/>
			</clipPath>
			<clipPath id="SVGID_6_" clip-path="url(#SVGID_5_)">
				<use xlink:href="#SVGID_4_"  overflow="visible"/>
			</clipPath>
			<g clip-path="url(#SVGID_6_)">
				<rect x="-366.159" y="-8.996" fill="#FFFFFF" stroke="#000000" stroke-miterlimit="10" width="1760.056" height="1218.548"/>
				<g>
					<g>
						<path fill="#FFFFFF" stroke="#000000" stroke-miterlimit="10" d="M-151.285,1209.553h-214.874V793.001
							c0,0,128.188-63.17,219.083-106.715c90.918-43.551,215.648-99.647,215.648-99.647s-13.73,81.406-11.613,123.625
							c2.219,44.296,20.617,91.457,20.617,91.457S-2.76,993.941-151.285,1209.553z"/>
					</g>
					<g>
						<path fill="#FFFFFF" stroke="#000000" stroke-miterlimit="10" d="M1179.021,1209.553h214.875V793.001
							c0,0-128.214-63.17-219.107-106.715c-90.895-43.551-215.649-99.647-215.649-99.647s13.731,81.406,11.614,123.625
							c-2.22,44.296-20.593,91.457-20.593,91.457S1030.473,993.941,1179.021,1209.553z"/>
					</g>
				</g>
				<g>
					<linearGradient id="SVGID_7_" gradientUnits="userSpaceOnUse" x1="190.3037" y1="799.6113" x2="190.3037" y2="1203.8575">
						<stop  offset="0" style="stop-color:#525252"/>
						<stop  offset="1" style="stop-color:#A4A4A4"/>
					</linearGradient>
					<path fill="url(#SVGID_7_)" d="M426.444,1209.233H-69.422c0,0,46.763-82.468,97.889-205.139
						C78.92,883.073,99.283,798.956,99.283,798.956h349.872C449.155,798.956,456.874,1027.653,426.444,1209.233z"/>
					
						<linearGradient id="SVGID_8_" gradientUnits="userSpaceOnUse" x1="1335.7842" y1="799.6104" x2="1335.7842" y2="1203.8566" gradientTransform="matrix(-1 0 0 1 2173.1953 0)">
						<stop  offset="0" style="stop-color:#525252"/>
						<stop  offset="1" style="stop-color:#A4A4A4"/>
					</linearGradient>
					<path fill="url(#SVGID_8_)" d="M601.265,1209.233h495.895c0,0-46.763-82.468-97.913-205.139
						c-50.428-121.021-70.817-205.139-70.817-205.139H578.53C578.53,798.956,570.839,1027.653,601.265,1209.233z"/>
				</g>
				<path fill="#FFFFFF" stroke="#000000" stroke-miterlimit="10" d="M513.88,520.23c175.934,0,389.466,20.785,405.258,22.651
					c14.505,1.7,22.092-3.674,28.183-14.676c7.898-14.201,56.105-97.359,107.361-181.214
					c52.956-86.565,114.172-165.153,121.088-178.924c7.02-13.879,2.168-31.212-14.709-35.892
					c-16.361-4.521-340.197-48.069-647.181-48.069c-306.979,0-630.813,43.548-647.175,48.069
					c-16.93,4.679-21.758,22.012-14.762,35.892c6.916,13.771,68.156,92.358,121.088,178.924
					c51.307,83.854,99.487,167.013,107.36,181.214c6.114,11.002,13.729,16.376,28.233,14.676
					C124.393,541.016,337.951,520.23,513.88,520.23z"/>
				<path d="M513.88,516.026c172.756,0,383.479,20.204,398.962,21.962c14.195,1.646,21.678-3.565,27.665-14.2
					c7.743-13.718,53.424-91.773,102.405-173.872c50.532-84.703,110.56-166.163,117.32-179.456
					c6.351-12.496,0.053-26.48-12.902-30.043c-16.104-4.36-332.041-46.525-633.45-46.525c-301.456,0-617.394,42.165-633.445,46.525
					c-12.983,3.563-19.28,17.547-12.931,30.043c6.787,13.292,66.817,94.752,117.349,179.456
					C33.835,432.015,79.487,510.07,87.229,523.788c5.987,10.635,13.471,15.846,27.692,14.2
					C130.406,536.23,341.125,516.026,513.88,516.026z"/>
				<path fill="#FFFFFF" d="M513.88,510.978c168.088,0,376.096,19.354,391.168,21.058c13.833,1.596,21.11-3.405,26.942-13.612
					c7.536-13.188,52.028-91.353,99.669-170.207c49.188-81.407,104.47-158.135,111.077-170.896
					c6.71-12.974,5.315-22.864-10.994-27.277c-15.641-4.201-324.608-44.719-617.862-44.719
					c-293.277,0-602.245,40.518-617.858,44.719c-16.338,4.413-17.756,14.303-11.045,27.277
					c6.607,12.761,61.911,89.489,111.076,170.896c47.665,78.854,92.157,157.02,99.692,170.207
					c5.833,10.207,13.11,15.208,26.943,13.612C137.76,530.331,345.798,510.978,513.88,510.978z"/>
				<path fill="#FFFFFF" stroke="#000000" stroke-miterlimit="10" d="M1393.896-8.996V99.688
					c-288.787,152.656-426.29,447.871-426.29,447.871s51.251-110.228,106.325-198.281c56.572-90.393,112.572-160.102,127.903-185.89
					c14.97-25.205,7.795-45.41-19.975-53.333c-24.414-6.913-351.81-44.611-668.003-44.611c-316.196,0-643.59,37.699-668.006,44.611
					c-27.769,7.923-34.919,28.128-19.95,53.333c15.278,25.788,71.308,95.497,127.879,185.89
					C8.854,437.332,60.106,547.56,60.106,547.56S-77.424,252.344-366.159,99.688V-8.996H1393.896z"/>
				<rect x="454.781" y="797.255" fill="#2B2B2B" width="118.146" height="66.145"/>
				<g>
					<g>
						<g>
							<path fill="#FFFFFF" stroke="#000000" d="M368.87,850.271c-0.62,4.516-4.698,8.129-9.085,8.129h-26.324
								c-4.387,0-7.381-3.613-6.762-8.129l7.588-52.323c0.619-4.466,4.697-8.139,9.084-8.139h26.324
								c4.387,0,7.381,3.673,6.762,8.139L368.87,850.271z"/>
							<path fill="#FFFFFF" stroke="#000000" d="M363.862,844.152c-0.671,4.522-4.749,8.188-9.084,8.188h-16.517
								c-4.336,0-7.382-3.665-6.711-8.188l6.091-42.112c0.671-4.518,4.696-8.133,9.085-8.133h16.465
								c4.388,0,7.381,3.615,6.762,8.133L363.862,844.152z"/>
						</g>
						<g>
							<path fill="#FFFFFF" stroke="#000000" d="M287.369,833.941c-0.62,4.524-4.697,8.143-9.085,8.143h-26.323
								c-4.387,0-7.381-3.618-6.762-8.143l5.213-35.993c0.672-4.466,4.698-8.139,9.084-8.139h26.376c4.335,0,7.381,3.673,6.71,8.139
								L287.369,833.941z"/>
							<path fill="#FFFFFF" stroke="#000000" d="M282.311,827.831c-0.619,4.517-4.696,8.133-9.084,8.133H256.76
								c-4.334,0-7.379-3.616-6.71-8.133l3.717-25.791c0.672-4.518,4.749-8.133,9.085-8.133h16.465c4.387,0,7.381,3.615,6.762,8.133
								L282.311,827.831z"/>
						</g>
						<g>
							<path fill="#FFFFFF" stroke="#000000" d="M203.494,833.941c-0.62,4.524-4.697,8.143-9.084,8.143h-26.324
								c-4.387,0-7.381-3.618-6.762-8.143l5.213-35.993c0.672-4.466,4.75-8.139,9.085-8.139h26.375c4.336,0,7.381,3.673,6.71,8.139
								L203.494,833.941z"/>
							<path fill="#FFFFFF" stroke="#000000" d="M198.486,827.831c-0.67,4.517-4.747,8.133-9.082,8.133h-16.518
								c-4.336,0-7.381-3.616-6.711-8.133l3.717-25.791c0.671-4.518,4.749-8.133,9.085-8.133h16.517c4.336,0,7.328,3.615,6.71,8.133
								L198.486,827.831z"/>
						</g>
					</g>
					<path fill="#FFFFFF" stroke="#000000" d="M959.657,676.979c0,0,1.858,21.27-0.052,44.771
						c-1.496,18.667-15.124,62.85-18.53,70.506c-3.354,7.608-7.381,10.904-18.272,11.591c-11.458,0.746-268.09,3.511-288.632,4.312
						c-38.349,1.538-47.435,24.141-51.563,27.272c-3.2,2.446-17.138,1.12-17.138,1.12s0-17.283,0-22.175
						c0-4.836-0.412-7.02-6.812-7.02h-89.552c-6.452,0-6.865,2.184-6.865,7.02c0,4.892,0,22.175,0,22.175s-13.884,1.326-17.136-1.12
						c-4.13-3.132-13.214-25.734-51.563-27.272c-20.543-0.802-277.174-3.566-288.632-4.312
						c-10.891-0.687-14.917-3.982-18.272-11.591c-3.355-7.656-17.033-51.839-18.529-70.506c-1.858-23.501,0-44.771,0-44.771H959.657
						z"/>
					<path fill="#FFFFFF" stroke="#000000" d="M518.604,520.762c192.421,0,389.595,21.057,389.595,21.057
						s7.328,27.381,17.599,34.454c10.634,7.281,23.279,7.6,23.279,7.6s8.464,49.822,10.581,93.106l-441.054,0.588l-450.496-0.588
						c2.064-43.284,10.529-93.106,10.529-93.106s12.646-0.318,23.279-7.6c10.271-7.073,17.601-34.454,17.601-34.454
						S326.234,520.762,518.604,520.762z"/>
					<path fill="#FFFFFF" stroke="#000000" d="M518.604,520.762c192.421,0,389.595,21.057,389.595,21.057
						s7.328,27.381,17.599,34.454c10.634,7.281,23.279,7.6,23.279,7.6s-151.128,6.544-430.473,6.544
						c-279.289,0-439.967-6.544-439.967-6.544s12.646-0.318,23.279-7.6c10.271-7.073,17.601-34.454,17.601-34.454
						S326.234,520.762,518.604,520.762z"/>
					<g>
						<path fill="#FFFFFF" stroke="#000000" d="M378.883,726.642c-60.027-3.24-310.775-4.893-310.775-4.893
							c1.496,18.667,15.174,62.85,18.529,70.506c3.355,7.608,7.382,10.904,18.272,11.591c11.458,0.746,268.089,3.511,288.632,4.312
							c38.35,1.538,47.434,24.141,51.563,27.272c0,0-9.239-54.285-18.942-78.213C417.439,735.786,407.684,728.188,378.883,726.642z"
							/>
						<path fill="#FFFFFF" stroke="#000000" d="M634.171,808.158c20.542-0.802,277.174-3.566,288.632-4.312
							c10.892-0.687,14.918-3.982,18.272-11.591c3.406-7.656,17.034-51.839,18.53-70.506c0,0-250.693,1.652-310.775,4.893
							c-28.802,1.546-38.557,9.145-47.228,30.576c-9.704,23.928-18.995,78.213-18.995,78.213
							C586.736,832.299,595.822,809.696,634.171,808.158z"/>
					</g>
					<g>
						<g>
							<path fill="#FFFFFF" stroke="#000000" d="M703.49,707.131c-10.04,0.532-14.399,3.829-17.24,13.023
								c-4.077,13.03-14.373,53.598-15.947,62.318c-0.31,1.595-0.544,3.402-0.544,5.211c0,2.607,0.516,5.211,2.168,7.287
								c2.063,2.602,5.551,3.935,10.66,3.985c10.294,0.212,167.388-1.326,181.635-1.54c11.819-0.212,17.29-2.076,20.696-13.029
								c3.664-11.91,13.162-50.883,14.968-61.362c0.929-5.472,0.104-9.889-2.373-13.081c-2.581-3.237-6.763-4.995-12.439-5.209
								C874.027,704.31,716.213,706.387,703.49,707.131z M682.662,793.532c-3.406-0.05-5.627-0.745-6.632-2.021
								c-1.084-1.383-1.266-3.984-0.543-8.083c1.578-8.557,11.745-48.706,15.794-61.622l0,0c2.014-6.545,4.106-8.779,12.49-9.251
								c12.699-0.745,170.101-2.823,181.095-2.397c4.129,0.163,6.969,1.275,8.518,3.247c1.496,1.914,1.909,4.836,1.289,8.662
								c-1.755,10.372-11.149,48.918-14.813,60.673c-2.322,7.657-4.696,9.042-15.741,9.253
								C849.871,792.206,692.984,793.745,682.662,793.532z M686.25,720.154v-0.051V720.154z"/>
						</g>
						<g>
							<path fill="#FFFFFF" stroke="#000000" d="M142.664,704.734c-5.702,0.214-9.91,1.972-12.463,5.269
								c-2.479,3.133-3.279,7.55-2.324,13.021c1.78,10.691,11.305,49.663,14.941,61.362c3.383,10.953,8.879,12.817,20.698,13.029
								c14.246,0.214,171.362,1.752,181.634,1.54c5.109-0.051,8.596-1.384,10.66-3.985c1.651-2.076,2.168-4.68,2.168-7.231
								c0-1.809-0.258-3.672-0.568-5.267c-1.549-8.558-11.796-49.133-15.925-62.318c-2.839-9.194-7.198-12.491-17.239-13.023
								C311.525,706.387,153.686,704.31,142.664,704.734z M163.596,791.993c-11.021-0.211-13.369-1.596-15.742-9.253
								c-3.51-11.271-13.035-50.405-14.791-60.673c-0.643-3.826-0.23-6.748,1.268-8.662c1.548-1.972,4.412-3.084,8.516-3.247
								c10.994-0.426,168.42,1.652,181.119,2.397c8.385,0.472,10.477,2.706,12.49,9.251l0,0
								c4.078,13.08,14.246,53.221,15.767,61.622c0.75,4.099,0.567,6.7-0.517,8.083c-1.004,1.275-3.251,1.971-6.631,2.021
								C334.776,793.745,177.842,792.206,163.596,791.993z M341.485,720.154L341.485,720.154v-0.051V720.154z"/>
						</g>
					</g>
					<path fill="#FFFFFF" stroke="#000000" d="M959.657,676.979c0,6.862-221.532,16.115-441.054,16.115
						c-219.467,0-450.496-9.253-450.496-16.115C68.107,670.121,959.657,670.121,959.657,676.979z"/>
					<path fill="#FFFFFF" stroke="#000000" d="M550.709,813.051c6.144,0,6.556,2.658,6.556,6.484v8.296l8.205,8.72
						c0,0,0-21.432,0-25.628c0-4.147-0.412-7.657-7.173-7.657h-88.828c-6.764,0-7.229,3.51-7.229,7.657c0,4.196,0,25.628,0,25.628
						l8.208-8.72v-8.296c0-3.826,0.413-6.484,6.606-6.484H550.709z"/>
					<path fill="#FFFFFF" stroke="#000000" d="M558.657,807.356c6.4,0,6.812,2.184,6.812,7.02c0,4.892,0,22.175,0,22.175
						s7.072,0.639,12.287,0.159c0,0,2.786-17.811,7.896-44.136c5.576-28.606,22.97-99.643,24.053-120.538
						c1.031-20.899-11.612-96.883-20.334-105.865c-8.776-8.99-38.145-15.634-70.768-15.634c-32.619,0-71.485,6.644-80.209,15.634
						c-8.723,8.982-21.367,84.966-20.336,105.865c1.033,20.896,18.479,91.932,24.002,120.538
						c5.109,26.325,7.896,44.136,7.896,44.136c5.264,0.479,12.283-0.159,12.283-0.159s0-17.283,0-22.175
						c0-4.836,0.413-7.02,6.865-7.02H558.657z"/>
					<path fill="#FFFFFF" stroke="#000000" d="M575.795,782.74c0,5.532-4.027,9.941-9.033,9.941H460.951
						c-5.007,0-9.033-4.409-9.033-9.941l-4.748-82.26c0-5.473,133.373-5.473,133.373,0L575.795,782.74z"/>
					<path fill="#FFFFFF" stroke="#000000" d="M572.49,780.509c0,5.104-3.819,9.194-8.516,9.194H463.738
						c-4.646,0-8.465-4.09-8.465-9.194l-4.75-78.376c0-5.104,126.716-5.104,126.716,0L572.49,780.509z"/>
					<path fill="#FFFFFF" stroke="#000000" d="M569.756,778.75c0,4.736-3.613,8.564-8.053,8.564h-95.643
						c-4.49,0-8.104-3.828-8.104-8.564l-4.748-75.186c0-4.729,121.295-4.729,121.295,0L569.756,778.75z"/>
					<path fill="#FFFFFF" stroke="#000000" d="M557.677,779.87h-87.642c-2.375,0-2.375-23.185,0-23.185h87.642
						C560.054,756.686,560.054,779.87,557.677,779.87z"/>
					<g>
						<g>
							<path fill="#FFFFFF" stroke="#000000" d="M486.656,757.8c5.625,5.8,5.625,15.206,0,21.005
								c-5.627,5.794-14.711,5.794-20.338,0c-5.625-5.799-5.625-15.205,0-21.005C471.945,752.007,481.029,752.007,486.656,757.8z"/>
							<path fill="#FFFFFF" stroke="#000000" d="M484.952,758.375c4.696,4.843,4.696,12.654,0,17.439
								c-4.696,4.893-12.285,4.893-16.931,0c-4.696-4.785-4.696-12.597,0-17.439C472.667,753.589,480.256,753.589,484.952,758.375z"
								/>
						</g>
						<g>
							<path fill="#FFFFFF" stroke="#000000" d="M524.076,757.8c5.626,5.8,5.626,15.206,0,21.005
								c-5.627,5.794-14.761,5.794-20.388,0c-5.626-5.799-5.626-15.205,0-21.005C509.315,752.007,518.449,752.007,524.076,757.8z"/>
							<path fill="#FFFFFF" stroke="#000000" d="M522.322,758.375c4.696,4.843,4.696,12.654,0,17.439
								c-4.646,4.893-12.232,4.893-16.932,0c-4.695-4.785-4.695-12.597,0-17.439C510.09,753.589,517.676,753.589,522.322,758.375z"
								/>
						</g>
						<g>
							<path fill="#FFFFFF" stroke="#000000" d="M561.445,757.8c5.626,5.8,5.626,15.206,0,21.005
								c-5.625,5.794-14.764,5.794-20.388,0c-5.627-5.799-5.627-15.205,0-21.005C546.682,752.007,555.82,752.007,561.445,757.8z"/>
							<path fill="#FFFFFF" stroke="#000000" d="M559.69,758.375c4.697,4.843,4.697,12.654,0,17.439
								c-4.645,4.893-12.233,4.893-16.931,0c-4.644-4.785-4.644-12.597,0-17.439C547.457,753.589,555.046,753.589,559.69,758.375z"
								/>
						</g>
					</g>
					<g>
						<path fill="#FFFFFF" stroke="#000000" d="M455.17,724.995c-13.215-9.571-23.537-46.104-24.62-62.16
							c-1.807-26.85,7.69-79.493,16.774-90.873c4.078-5.104,44.802-12.441,71.279-12.441c26.532,0,57.706,7.337,61.786,12.441
							c9.082,11.38,18.58,64.023,16.774,90.873c-1.086,16.057-11.407,52.589-24.622,62.16
							C558.451,735.098,469.261,735.098,455.17,724.995z"/>
						<path fill="#FFFFFF" stroke="#000000" d="M456.15,718.51c-12.957-9.039-22.969-43.707-24.053-59.022
							c-1.755-25.521,7.432-75.508,16.361-86.354c3.975-4.785,44.132-12.018,70.145-12.018c26.015,0,56.675,7.232,60.647,12.018
							c8.982,10.847,18.118,60.833,16.362,86.354c-1.084,15.315-11.044,49.983-24.052,59.022
							C557.781,728.188,469.932,728.188,456.15,718.51z"/>
						<path fill="#FFFFFF" stroke="#000000" d="M441.824,638.29c-1.41-20.263,5.585-56.395,11.219-63.247
							c3.645-4.357,41.626-11.105,65.284-11.105c23.649,0,52.699,6.748,56.343,11.105c5.681,6.853,12.627,42.984,11.22,63.247
							C584.435,659.658,443.33,659.658,441.824,638.29z"/>
					</g>
					<g>
						<path fill="#FFFFFF" stroke="#000000" d="M451.918,601.951c0-9.832,6.143-16.483,15.381-16.483h93.114
							c9.239,0,15.382,6.651,15.382,16.483v43.073c0,5.424-4.027,9.892-9.033,9.892H460.951c-4.955,0-9.033-4.468-9.033-9.892
							V601.951z"/>
						<path fill="#FFFFFF" stroke="#000000" d="M455.273,602.483c0-9.358,5.885-14.037,14.812-14.037h87.541
							c8.928,0,14.863,4.679,14.863,14.037v40.946c0,4.998-3.819,9.145-8.516,9.145H463.738c-4.646,0-8.465-4.146-8.465-9.145
							V602.483z"/>
						<path fill="#FFFFFF" stroke="#000000" d="M457.957,604.291c0-9.038,4.182-13.397,12.852-13.397h86.095
							c8.723,0,12.853,4.359,12.853,13.397v37.649c0,4.68-3.613,8.508-8.053,8.508h-95.643c-4.49,0-8.104-3.828-8.104-8.508V604.291
							z"/>
						<path fill="#FFFFFF" stroke="#000000" d="M473.699,633.27h80.314c2.168,0,2.168,7.607,0,7.607h-80.314
							C471.531,640.877,471.531,633.27,473.699,633.27z"/>
						<path fill="#FFFFFF" stroke="#000000" d="M473.699,601.527h80.314c5.316,0,5.316,25.951,0,25.951h-80.314
							C468.383,627.479,468.383,601.527,473.699,601.527z"/>
					</g>
					<g>
						<path fill="#FFFFFF" stroke="#000000" d="M542.76,682.402h-57.756c-6.711,0-6.711-22.595,0-22.595h57.756
							C549.47,659.808,549.47,682.402,542.76,682.402z"/>
						<path fill="#FFFFFF" stroke="#000000" d="M539.87,680.332h-51.976c-6.711,0-6.711-19.036,0-19.036h51.976
							C546.58,661.296,546.58,680.332,539.87,680.332z"/>
						<path fill="#FFFFFF" stroke="#000000" d="M539.87,661.296h-51.976c-3.407,0-5.059,4.255-5.059,9.677h62.041
							C544.928,665.551,543.225,661.296,539.87,661.296z"/>
					</g>
					<g>
						<path fill="#FFFFFF" stroke="#000000" d="M541.574,714.467h-55.383c-3.253,0-3.253-10.951,0-10.951h55.383
							C544.773,703.516,544.773,714.467,541.574,714.467z"/>
						<path fill="#FFFFFF" stroke="#000000" d="M539.096,712.874h-50.479c-3.51,0-3.51-7.126,0-7.126h50.479
							C542.604,705.748,542.604,712.874,539.096,712.874z"/>
					</g>
					<g>
						<path fill="#FFFFFF" stroke="#000000" d="M554.993,746.527h-82.223c-2.271,0-2.271-7.601,0-7.601h82.223
							C557.213,738.927,557.213,746.527,554.993,746.527z"/>
						<path fill="#FFFFFF" stroke="#000000" d="M553.289,745.415h-78.867c-2.426,0-2.426-4.892,0-4.892h78.867
							C555.716,740.523,555.716,745.415,553.289,745.415z"/>
					</g>
					<g>
						<g>
							<path fill="#FFFFFF" stroke="#000000" d="M459.453,711.703c-4.129-2.821-4.129-7.443,0-10.315
								c4.182-2.87,10.892-2.87,15.021,0c5.419,3.723,2.374,12.018,2.374,12.018S464.873,715.475,459.453,711.703z"/>
							<path fill="#FFFFFF" stroke="#000000" d="M553.238,701.388c4.13-2.87,10.891-2.87,15.02,0c4.183,2.872,4.183,7.494,0,10.315
								c-5.418,3.771-17.393,1.702-17.393,1.702S547.818,705.11,553.238,701.388z"/>
						</g>
						<path fill="#FFFFFF" stroke="#000000" d="M474.836,706.599c0,2.815-3.511,5.104-7.795,5.104c-4.283,0-7.794-2.289-7.794-5.104
							c0-2.765,3.511-5.104,7.794-5.104C471.325,701.494,474.836,703.834,474.836,706.599z"/>
						<path fill="#FFFFFF" stroke="#000000" d="M568.466,706.599c0,2.815-3.459,5.104-7.795,5.104c-4.283,0-7.742-2.289-7.742-5.104
							c0-2.765,3.459-5.104,7.742-5.104C565.007,701.494,568.466,703.834,568.466,706.599z"/>
					</g>
					<g>
						<g>
							<path fill="#FFFFFF" stroke="#000000" d="M429.621,686.442c-10.375-10.684-10.375-27.912,0-38.602
								c10.322-10.686,27.098-10.686,37.42,0c13.523,13.931,5.937,44.721,5.937,44.721S443.092,700.324,429.621,686.442z"/>
							<path fill="#FFFFFF" stroke="#000000" d="M560.671,647.841c10.324-10.686,27.099-10.686,37.472,0
								c10.325,10.689,10.325,27.918,0,38.602c-13.523,13.882-43.407,6.119-43.407,6.119S547.148,661.771,560.671,647.841z"/>
						</g>
						<g>
							<g>
								<path fill="#FFFFFF" stroke="#000000" d="M559.38,665.918c0-11.428,8.982-20.681,20.027-20.681
									c11.046,0,20.027,9.253,20.027,20.681c0,11.436-8.981,20.688-20.027,20.688C568.362,686.605,559.38,677.354,559.38,665.918z
									"/>
								<path fill="#FFFFFF" stroke="#000000" d="M595.822,665.28c0,9.309-7.384,16.908-16.415,16.908
									c-9.032,0-16.413-7.6-16.413-16.908c0-9.302,7.381-16.853,16.413-16.853C588.438,648.428,595.822,655.979,595.822,665.28z"
									/>
								<path fill="#FFFFFF" stroke="#000000" d="M590.97,659.808c0,5.53-5.213,9.997-11.562,9.997
									c-6.401,0-11.562-4.467-11.562-9.997s5.16-9.996,11.562-9.996C585.757,649.812,590.97,654.277,590.97,659.808z"/>
							</g>
							<g>
								<path fill="#FFFFFF" stroke="#000000" d="M428.278,665.918c0-11.428,8.981-20.681,20.026-20.681
									c11.098,0,20.078,9.253,20.078,20.681c0,11.436-8.98,20.688-20.078,20.688C437.26,686.605,428.278,677.354,428.278,665.918z
									"/>
								<path fill="#FFFFFF" stroke="#000000" d="M464.719,665.28c0,9.309-7.33,16.908-16.414,16.908
									c-9.032,0-16.361-7.6-16.361-16.908c0-9.302,7.329-16.853,16.361-16.853C457.389,648.428,464.719,655.979,464.719,665.28z"
									/>
								<path fill="#FFFFFF" stroke="#000000" d="M459.867,659.808c0,5.53-5.162,9.997-11.562,9.997
									c-6.35,0-11.51-4.467-11.51-9.997s5.16-9.996,11.51-9.996C454.705,649.812,459.867,654.277,459.867,659.808z"/>
							</g>
						</g>
						<path fill="#FFFFFF" stroke="#000000" d="M449.854,688.677c-7.124,0-20.542-2.553-20.232-2.234
							c6.348,6.545,16.414,8.296,25.238,8.296l0,0h117.993l0,0c8.825,0,18.891-1.751,25.29-8.296
							c0.361-0.367-13.057,2.234-20.23,2.234H449.854z"/>
					</g>
					<g>
						<g>
							<path fill="#FFFFFF" stroke="#000000" d="M479.998,602.646c0,5.314-4.233,9.624-9.396,9.624c-5.161,0-9.343-4.31-9.343-9.624
								s4.182-9.626,9.343-9.626C475.765,593.02,479.998,597.331,479.998,602.646z"/>
							<path fill="#FFFFFF" stroke="#000000" d="M478.293,602.908c0,4.365-3.457,7.874-7.69,7.874c-4.181,0-7.64-3.509-7.64-7.874
								c0-4.302,3.459-7.868,7.64-7.868C474.836,595.04,478.293,598.606,478.293,602.908z"/>
							<path fill="#FFFFFF" stroke="#000000" d="M476.021,601.208c0,2.553-2.425,4.682-5.419,4.682
								c-2.942,0-5.368-2.129-5.368-4.682c0-2.602,2.426-4.68,5.368-4.68C473.597,596.528,476.021,598.606,476.021,601.208z"/>
						</g>
						<g>
							<ellipse fill="#FFFFFF" stroke="#000000" cx="557.11" cy="602.646" rx="9.342" ry="9.624"/>
							<path fill="#FFFFFF" stroke="#000000" d="M564.748,602.908c0,4.365-3.405,7.874-7.639,7.874c-4.232,0-7.64-3.509-7.64-7.874
								c0-4.302,3.407-7.868,7.64-7.868C561.343,595.04,564.748,598.606,564.748,602.908z"/>
							<path fill="#FFFFFF" stroke="#000000" d="M562.477,601.208c0,2.553-2.372,4.682-5.367,4.682
								c-2.992,0-5.369-2.129-5.369-4.682c0-2.602,2.377-4.68,5.369-4.68C560.104,596.528,562.477,598.606,562.477,601.208z"/>
						</g>
					</g>
					<g>
						<g>
							<path fill="#FFFFFF" stroke="#000000" d="M941.335,589.46c8.516,35.303,10.631,81.138,10.631,81.138
								s-47.382,1.063-54.815-6.75c-8.724-9.146-2.062-53.229,8.775-63.917C916.557,589.46,941.335,589.46,941.335,589.46z"/>
							<path fill="#FFFFFF" stroke="#000000" d="M938.701,595.253c6.864,30.311,8.569,69.552,8.569,69.552
								s-38.144,0.852-44.184-5.798c-7.021-7.87-1.653-45.622,7.072-54.766C918.777,595.253,938.701,595.253,938.701,595.253z"/>
							<path fill="#FFFFFF" stroke="#000000" d="M937.461,599.562c5.835,26.64,7.278,61.144,7.278,61.144s-32.362,0.803-37.42-5.046
								c-5.987-6.913-1.444-40.148,5.986-48.232C920.584,599.562,937.461,599.562,937.461,599.562z"/>
							<path fill="#FFFFFF" stroke="#000000" d="M937.461,599.562c5.835,26.64,7.278,61.144,7.278,61.144
								s-29.73-30.414-27.718-46.735C918.108,604.983,937.461,599.562,937.461,599.562z"/>
						</g>
						<g>
							<path fill="#FFFFFF" stroke="#000000" d="M86.431,589.46c-8.568,35.303-10.685,81.138-10.685,81.138
								s47.383,1.063,54.814-6.75c8.725-9.146,2.117-53.229-8.773-63.917C111.154,589.46,86.431,589.46,86.431,589.46z"/>
							<path fill="#FFFFFF" stroke="#000000" d="M89.012,595.253c-6.865,30.311-8.568,69.552-8.568,69.552
								s38.194,0.852,44.184-5.798c7.02-7.87,1.703-45.622-7.072-54.766C108.986,595.253,89.012,595.253,89.012,595.253z"/>
							<path fill="#FFFFFF" stroke="#000000" d="M90.25,599.562c-5.779,26.64-7.277,61.144-7.277,61.144s32.363,0.803,37.473-5.046
								c5.936-6.913,1.393-40.148-5.988-48.232C107.18,599.562,90.25,599.562,90.25,599.562z"/>
							<path fill="#FFFFFF" stroke="#000000" d="M90.25,599.562c-5.779,26.64-7.277,61.144-7.277,61.144s29.73-30.414,27.718-46.735
								C109.605,604.983,90.25,599.562,90.25,599.562z"/>
						</g>
					</g>
					<g>
						<path fill="#FFFFFF" stroke="#000000" d="M270.284,496.563c48.931,0,88.313,9.572,107.411,26.433
							c18.582,16.48,31.898,57.155,28.75,63.218c-2.943,5.742-32.982,11.117-136.161,11.117
							c-103.127,0-133.167-5.375-136.161-11.117c-3.098-6.062,10.168-46.737,28.801-63.218
							C181.971,506.136,221.354,496.563,270.284,496.563z"/>
						<path fill="#FFFFFF" stroke="#000000" d="M270.284,509.858c43.667,0,78.3,9.253,95.333,23.502
							c16.568,13.93,33.447,45.784,30.66,50.889c-2.684,4.892-33.912,9.407-125.993,9.407c-92.03,0-123.31-4.516-125.94-9.407
							c-2.788-5.104,14.039-36.959,30.658-50.889C192.035,519.111,226.618,509.858,270.284,509.858z"/>
						<g>
							<g>
								<path fill="#FFFFFF" stroke="#000000" d="M251.341,555.373c0,18.879-14.864,34.193-33.188,34.193
									s-33.241-15.314-33.241-34.193c0-18.93,14.918-34.244,33.241-34.244S251.341,536.443,251.341,555.373z"/>
								<path fill="#FFFFFF" stroke="#000000" d="M248.709,556.33c0,17.391-13.678,31.478-30.556,31.478
									s-30.557-14.087-30.557-31.478c0-17.335,13.679-31.478,30.557-31.478S248.709,538.995,248.709,556.33z"/>
								<path fill="#FFFFFF" stroke="#000000" d="M238.077,556.33c0,11.329-8.931,20.524-19.924,20.524
									c-10.995,0-19.923-9.195-19.923-20.524c0-11.322,8.928-20.525,19.923-20.525
									C229.146,535.805,238.077,545.008,238.077,556.33z"/>
								<g>
									<path fill="#FFFFFF" stroke="#000000" d="M223.005,556.33c0,2.764-2.168,4.999-4.852,4.999
										c-2.685,0-4.853-2.235-4.853-4.999c0-2.765,2.168-4.998,4.853-4.998C220.837,551.332,223.005,553.565,223.005,556.33z"/>
									<g>
										<rect x="217.482" y="527.617" fill="#FFFFFF" stroke="#000000" width="1.29" height="5.162"/>
										<rect x="217.482" y="579.889" fill="#FFFFFF" stroke="#000000" width="1.29" height="5.154"/>
									</g>
									<g>
										<rect x="190.281" y="555.691" fill="#FFFFFF" stroke="#000000" width="5.006" height="1.275"/>
										<rect x="241.018" y="555.691" fill="#FFFFFF" stroke="#000000" width="5.008" height="1.275"/>
									</g>
									<g>
										<polygon fill="#FFFFFF" stroke="#000000" points="202.461,539.208 201.533,540.166 197.971,536.5 198.9,535.593 
																					"/>
										<polygon fill="#FFFFFF" stroke="#000000" points="238.282,576.166 237.406,577.067 233.844,573.452 234.772,572.495 
																					"/>
									</g>
									<g>
										<polygon fill="#FFFFFF" stroke="#000000" points="201.533,572.495 202.461,573.452 198.9,577.067 197.971,576.166 
																					"/>
										<polygon fill="#FFFFFF" stroke="#000000" points="237.406,535.593 238.282,536.5 234.772,540.166 233.844,539.208 
																					"/>
									</g>
									<g>
										<polygon fill="#FFFFFF" stroke="#000000" points="198.693,543.992 198.022,545.163 193.688,542.562 194.359,541.441 
																					"/>
										<polygon fill="#FFFFFF" stroke="#000000" points="242.619,570.105 241.947,571.275 237.613,568.667 238.282,567.494 
																					"/>
									</g>
									<g>
										<polygon fill="#FFFFFF" stroke="#000000" points="206.178,576.43 207.262,577.067 204.785,581.533 203.648,580.896 
																					"/>
										<polygon fill="#FFFFFF" stroke="#000000" points="231.521,531.126 232.657,531.82 230.128,536.23 229.044,535.593 
																					"/>
									</g>
									<g>
										<polygon fill="#FFFFFF" stroke="#000000" points="195.906,561.754 196.216,563.086 191.415,564.412 191.055,563.136 
																					"/>
										<polygon fill="#FFFFFF" stroke="#000000" points="244.89,548.248 245.251,549.524 240.398,550.906 240.09,549.63 
																					"/>
									</g>
									<g>
										<polygon fill="#FFFFFF" stroke="#000000" points="223.469,579.301 224.707,578.875 225.998,583.872 224.76,584.249 
																					"/>
										<polygon fill="#FFFFFF" stroke="#000000" points="210.308,528.787 211.547,528.469 212.836,533.417 211.598,533.784 
																					"/>
									</g>
									<g>
										<polygon fill="#FFFFFF" stroke="#000000" points="207.262,535.593 206.178,536.23 203.648,531.82 204.785,531.126 
																					"/>
										<polygon fill="#FFFFFF" stroke="#000000" points="232.657,580.896 231.521,581.533 229.044,577.067 230.128,576.43 
																					"/>
									</g>
									<g>
										<polygon fill="#FFFFFF" stroke="#000000" points="198.022,567.494 198.693,568.667 194.359,571.275 193.688,570.105 
																					"/>
										<polygon fill="#FFFFFF" stroke="#000000" points="241.947,541.441 242.619,542.562 238.282,545.163 237.613,543.992 
																					"/>
									</g>
									<g>
										<polygon fill="#FFFFFF" stroke="#000000" points="196.216,549.63 195.906,550.906 191.055,549.524 191.415,548.248 
																					"/>
										<polygon fill="#FFFFFF" stroke="#000000" points="245.251,563.136 244.89,564.412 240.09,563.086 240.398,561.754 
																					"/>
									</g>
									<g>
										<polygon fill="#FFFFFF" stroke="#000000" points="211.598,578.875 212.836,579.301 211.547,584.249 210.308,583.872 
																					"/>
										<polygon fill="#FFFFFF" stroke="#000000" points="224.76,528.469 225.998,528.787 224.707,533.784 223.469,533.417 
																					"/>
									</g>
								</g>
							</g>
							<g>
								<path fill="#FFFFFF" stroke="#000000" d="M355.656,555.373c0,18.879-14.865,34.193-33.189,34.193
									c-18.375,0-33.239-15.314-33.239-34.193c0-18.93,14.864-34.244,33.239-34.244
									C340.791,521.129,355.656,536.443,355.656,555.373z"/>
								<g>
									<path fill="#FFFFFF" stroke="#000000" d="M353.023,556.33c0,17.391-13.678,31.478-30.557,31.478
										c-16.877,0-30.556-14.087-30.556-31.478c0-17.335,13.679-31.478,30.556-31.478
										C339.346,524.853,353.023,538.995,353.023,556.33z"/>
									<path fill="#FFFFFF" stroke="#000000" d="M342.391,556.33c0,11.329-8.93,20.524-19.924,20.524s-19.923-9.195-19.923-20.524
										c0-11.322,8.929-20.525,19.923-20.525S342.391,545.008,342.391,556.33z"/>
									<g>
										<path fill="#FFFFFF" stroke="#000000" d="M327.32,556.33c0,2.764-2.17,4.999-4.854,4.999s-4.852-2.235-4.852-4.999
											c0-2.765,2.168-4.998,4.852-4.998S327.32,553.565,327.32,556.33z"/>
										<g>
											<rect x="321.796" y="527.617" fill="#FFFFFF" stroke="#000000" width="1.29" height="5.162"/>
											<rect x="321.796" y="579.889" fill="#FFFFFF" stroke="#000000" width="1.29" height="5.154"/>
										</g>
										<g>
											<rect x="294.595" y="555.691" fill="#FFFFFF" stroke="#000000" width="5.007" height="1.275"/>
											<rect x="345.333" y="555.691" fill="#FFFFFF" stroke="#000000" width="5.007" height="1.275"/>
										</g>
										<g>
											<polygon fill="#FFFFFF" stroke="#000000" points="306.776,539.208 305.848,540.166 302.286,536.5 303.215,535.593 
																							"/>
											<polygon fill="#FFFFFF" stroke="#000000" points="342.597,576.166 341.72,577.067 338.158,573.452 339.087,572.495 
																							"/>
										</g>
										<g>
											<polygon fill="#FFFFFF" stroke="#000000" points="305.848,572.495 306.776,573.452 303.215,577.067 302.286,576.166 
																							"/>
											<polygon fill="#FFFFFF" stroke="#000000" points="341.72,535.593 342.597,536.5 339.087,540.166 338.158,539.208 
																							"/>
										</g>
										<g>
											<polygon fill="#FFFFFF" stroke="#000000" points="302.957,543.992 302.338,545.163 298.002,542.562 298.672,541.441 
																							"/>
											<polygon fill="#FFFFFF" stroke="#000000" points="346.934,570.105 346.262,571.275 341.926,568.667 342.597,567.494 
																							"/>
										</g>
										<g>
											<polygon fill="#FFFFFF" stroke="#000000" points="310.441,576.43 311.576,577.067 309.1,581.533 307.963,580.896 
																							"/>
											<polygon fill="#FFFFFF" stroke="#000000" points="335.835,531.126 336.971,531.82 334.441,536.23 333.307,535.593 
																							"/>
										</g>
										<g>
											<polygon fill="#FFFFFF" stroke="#000000" points="300.221,561.754 300.531,563.086 295.73,564.412 295.369,563.136 
																							"/>
											<polygon fill="#FFFFFF" stroke="#000000" points="349.203,548.248 349.564,549.524 344.713,550.906 344.402,549.63 
																							"/>
										</g>
										<g>
											<polygon fill="#FFFFFF" stroke="#000000" points="327.732,579.301 329.021,578.875 330.312,583.872 329.021,584.249 
																							"/>
											<polygon fill="#FFFFFF" stroke="#000000" points="314.621,528.787 315.859,528.469 317.15,533.417 315.912,533.784 
																							"/>
										</g>
										<g>
											<polygon fill="#FFFFFF" stroke="#000000" points="311.576,535.593 310.441,536.23 307.963,531.82 309.1,531.126 
																							"/>
											<polygon fill="#FFFFFF" stroke="#000000" points="336.971,580.896 335.835,581.533 333.307,577.067 334.441,576.43 
																							"/>
										</g>
										<g>
											<polygon fill="#FFFFFF" stroke="#000000" points="302.338,567.494 302.957,568.667 298.672,571.275 298.002,570.105 
																							"/>
											<polygon fill="#FFFFFF" stroke="#000000" points="346.262,541.441 346.934,542.562 342.597,545.163 341.926,543.992 
																							"/>
										</g>
										<g>
											<polygon fill="#FFFFFF" stroke="#000000" points="300.531,549.63 300.221,550.906 295.369,549.524 295.73,548.248 
																							"/>
											<polygon fill="#FFFFFF" stroke="#000000" points="349.564,563.136 349.203,564.412 344.402,563.086 344.713,561.754 
																							"/>
										</g>
										<g>
											<polygon fill="#FFFFFF" stroke="#000000" points="315.912,578.875 317.15,579.301 315.859,584.249 314.621,583.872 
																							"/>
											<polygon fill="#FFFFFF" stroke="#000000" points="329.021,528.469 330.312,528.787 329.021,533.784 327.732,533.417 
																							"/>
										</g>
									</g>
								</g>
							</g>
						</g>
						<g>
							<path fill="#FFFFFF" stroke="#000000" d="M285.408,529.956c0,8.614-6.763,15.527-15.124,15.527
								c-8.31,0-15.071-6.913-15.071-15.527c0-8.613,6.762-15.525,15.071-15.525C278.646,514.431,285.408,521.343,285.408,529.956z"
								/>
							<path fill="#FFFFFF" stroke="#000000" d="M282.93,530.381c0,7.183-5.678,12.974-12.646,12.974
								c-6.917,0-12.593-5.791-12.593-12.974c0-7.174,5.676-12.973,12.593-12.973C277.252,517.408,282.93,523.207,282.93,530.381z"
								/>
							<path fill="#FFFFFF" stroke="#000000" d="M278.646,527.831c0,4.784-3.716,8.612-8.361,8.612c-4.594,0-8.31-3.828-8.31-8.612
								c0-4.786,3.716-8.616,8.31-8.616C274.93,519.215,278.646,523.045,278.646,527.831z"/>
						</g>
						<path fill="#FFFFFF" stroke="#000000" d="M374.443,523.844c-18.478-16.327-56.672-23.983-104.159-23.983
							c-47.435,0-85.63,7.656-104.159,23.983c-18.014,16.001-29.575,58.008-29.575,58.008s15.278-36.206,32.413-50.562
							c17.498-14.674,56.365-25.842,101.321-25.842c45.009,0,83.875,11.168,101.372,25.842
							c17.137,14.356,32.414,50.562,32.414,50.562S392.509,539.845,374.443,523.844z"/>
					</g>
					<g>
						<path fill="#FFFFFF" stroke="#000000" d="M270.284,710.108c21.989,0,29.73-7.019,29.73-7.019s-1.755-18.398,9.137-48.174
							c10.839-29.672,18.116-32.224,28.232-33.024c10.116-0.795,28.802,0,28.802,0s4.852-9.464,5.315-22.01
							c0.517-12.605-3.767-24.196-3.767-24.196c-0.412,3.827-6.556,6.65-11.149,5.742c-7.794-1.539-51.512-18.822-86.301-18.822
							c-34.737,0-78.454,17.283-86.301,18.822c-4.594,0.908-10.736-1.915-11.097-5.742c0,0-4.284,11.591-3.82,24.196
							c0.517,12.546,5.316,22.01,5.316,22.01s18.737-0.795,28.802,0c10.116,0.801,17.445,3.353,28.284,33.024
							c10.892,29.775,9.085,48.174,9.085,48.174S248.297,710.108,270.284,710.108z"/>
						<g>
							<path fill="#FFFFFF" stroke="#000000" d="M270.284,477.954c-66.48,0-120.366,55.512-120.366,123.948
								c0,68.482,53.886,123.994,120.366,123.994S390.65,670.385,390.65,601.902C390.65,533.466,336.765,477.954,270.284,477.954z
								 M270.284,703.621c-54.505,0-98.688-45.516-98.688-101.719c0-56.149,44.184-101.721,98.688-101.721
								c54.558,0,98.739,45.571,98.739,101.721C369.023,658.105,324.842,703.621,270.284,703.621z"/>
						</g>
						<g>
							<path fill="#FFFFFF" stroke="#000000" d="M270.284,479.23c-64.468,0-116.702,53.809-116.702,120.275
								c0,66.412,52.234,120.279,116.702,120.279c64.52,0,116.754-53.867,116.754-120.279
								C387.038,533.039,334.804,479.23,270.284,479.23z M270.284,705.43c-57.241,0-103.592-47.751-103.592-106.774
								c0-58.915,46.351-106.713,103.592-106.713c57.24,0,103.644,47.798,103.644,106.713
								C373.928,657.679,327.524,705.43,270.284,705.43z"/>
						</g>
						<path fill="#FFFFFF" stroke="#000000" d="M270.284,715.852c-44.027,0-82.739-23.771-104.572-59.553
							c19.2,39.453,58.841,66.569,104.572,66.569c45.782,0,85.372-27.116,104.624-66.569
							C353.023,692.08,314.363,715.852,270.284,715.852z"/>
						<path fill="#FFFFFF" stroke="#000000" d="M270.284,487.632c43.046,0,80.829,25.687,102.198,60.616
							c-18.787-38.497-57.5-67.423-102.198-67.423s-83.358,28.926-102.146,67.423C189.455,513.318,227.237,487.632,270.284,487.632z
							"/>
						<path fill="#FFFFFF" stroke="#000000" d="M288.711,708.725c6.193-2.552,14.401-9.25,15.898-12.815
							c1.496-3.56,12.955-47.907,19.665-60.193c5.11-9.409,9.444-10.74,18.116-11.748c8.723-1.062,22.4-1.807,22.4-1.807
							s1.24-3.614,1.24-6.912c0-3.354,0-8.721-2.219-15.637c-2.272-6.912-3.562-8.081-8.982-10.74
							c-5.678-2.872-48.208-17.065-84.546-17.065c-36.286,0-78.816,14.193-84.546,17.065c-5.42,2.659-6.711,3.828-8.93,10.74
							c-2.219,6.916-2.271,12.282-2.271,15.637c0,3.298,1.291,6.912,1.291,6.912s13.678,0.744,22.35,1.807
							c8.723,1.008,13.006,2.339,18.168,11.748c6.711,12.286,18.17,56.634,19.666,60.193c1.445,3.565,9.652,10.264,15.898,12.815
							C260.632,712.342,279.988,712.342,288.711,708.725z"/>
						<path fill="#FFFFFF" stroke="#000000" d="M288.711,706.387c6.193-2.553,9.188-9.202,10.684-12.762
							c1.498-3.616,12.904-50.938,19.666-63.275c3.923-7.232,9.136-11.698,16.62-12.55c8.722-1.063,25.911-2.551,25.911-2.551
							s1.444-7.976-0.774-14.891c-2.22-6.914-4.284-7.339-9.704-9.998c-5.729-2.765-44.491-15.47-80.829-15.47
							c-36.286,0-75.099,12.705-80.778,15.47c-5.419,2.659-7.484,3.084-9.703,9.998c-2.271,6.915-0.775,14.891-0.775,14.891
							s17.188,1.487,25.859,2.551c7.537,0.852,12.75,5.317,16.673,12.55c6.71,12.337,18.168,59.659,19.665,63.275
							c1.445,3.56,4.439,10.209,10.686,12.762C260.632,710.003,279.988,710.003,288.711,706.387z"/>
						<path fill="#FFFFFF" stroke="#000000" d="M270.284,584.888c44.286,0,86.816,10.152,89.036,17.063
							c-2.22-6.911-4.284-7.336-9.703-9.995c-5.729-2.873-42.995-15.526-79.333-15.526c-36.286,0-73.604,12.653-79.333,15.526
							c-5.42,2.659-7.432,3.084-9.703,9.995C183.52,595.04,226.051,584.888,270.284,584.888z"/>
						<g>
							<path fill="#FFFFFF" stroke="#000000" d="M244.684,695.113c-2.685-7.231-11.562-58.383-17.808-71.677
								c-4.491-9.569-7.175-10.846-17.808-11.009c-8.258-0.107-27.82,1.275-27.82,1.275s17.188,1.546,25.91,3.033
								c7.898,1.383,11.355,4.254,16.156,13.613c6.348,12.337,16.311,57.852,19.098,64.977c2.478,6.274,8.053,10.316,8.053,10.316
								S247.109,701.863,244.684,695.113z"/>
							<path fill="#FFFFFF" stroke="#000000" d="M295.938,695.113c2.632-7.231,11.562-58.383,17.807-71.677
								c4.439-9.569,7.176-10.846,17.807-11.009c8.208-0.107,27.77,1.275,27.77,1.275s-17.137,1.546-25.911,3.033
								c-7.897,1.383-11.304,4.254-16.155,13.613c-6.298,12.337-16.311,57.852-19.098,64.977c-2.426,6.274-8,10.316-8,10.316
								S293.512,701.863,295.938,695.113z"/>
						</g>
						<path fill="#FFFFFF" stroke="#000000" d="M285.098,701.601c3.561-3.295,15.949-81.354,14.194-82.844
							c-1.807-1.489-56.157-1.489-57.964,0s10.633,79.549,14.193,82.844C262.387,707.926,278.233,707.926,285.098,701.601z"/>
						<path fill="#FFFFFF" stroke="#000000" d="M280.969,700.431c2.529-3.401,7.846-79.865,6.555-81.411
							c-1.291-1.538-33.137-1.538-34.428,0c-1.291,1.546,3.975,78.01,6.556,81.411C263.161,705.11,277.406,705.11,280.969,700.431z"
							/>
						<path fill="#FFFFFF" stroke="#000000" d="M181.764,584.513c7.846-1.597,53.783-17.334,88.521-17.334
							c34.735,0,80.726,15.737,88.571,17.334c4.594,0.85,8.467-5,8.879-8.827c-0.412,3.827-6.556,5.848-11.149,4.997
							c-7.794-1.597-51.565-18.822-86.301-18.822c-34.737,0-78.454,17.226-86.301,18.822c-4.594,0.851-10.736-1.17-11.097-4.997
							C173.247,579.513,177.171,585.362,181.764,584.513z"/>
						<g>
							<path fill="#FFFFFF" stroke="#000000" d="M314.261,611.102c0,23.926-19.666,43.28-43.977,43.28
								c-24.259,0-43.925-19.354-43.925-43.28c0-23.931,19.666-43.394,43.925-43.394
								C294.595,567.708,314.261,587.171,314.261,611.102z"/>
							<path fill="#FFFFFF" stroke="#000000" d="M311.266,595.358c-10.477,10.582-24.929,17.125-40.981,17.125
								c-16.001,0-30.505-6.543-40.931-17.125c-1.962,4.842-2.994,10.156-2.994,15.743c0,2.232,0.155,4.465,0.517,6.593
								c12.697,4.785,27.562,7.442,43.408,7.442c15.897,0,30.712-2.657,43.46-7.442c0.31-2.128,0.517-4.36,0.517-6.593
								C314.261,605.515,313.176,600.2,311.266,595.358z"/>
							<path fill="#FFFFFF" stroke="#000000" d="M307.654,608.974c0,20.312-16.725,36.796-37.37,36.796
								c-20.594,0-37.317-16.483-37.317-36.796c0-20.314,16.724-36.799,37.317-36.799
								C290.93,572.175,307.654,588.659,307.654,608.974z"/>
							<path fill="#FFFFFF" stroke="#000000" d="M304.839,608.336c0,18.767-15.485,34.03-34.555,34.03
								c-19.073,0-34.559-15.264-34.559-34.03c0-18.77,15.485-34.034,34.559-34.034
								C289.354,574.302,304.839,589.566,304.839,608.336z"/>
							<path fill="#FFFFFF" stroke="#000000" d="M298.387,598.393c0,12.545-12.566,19.031-28.103,19.031
								c-15.483,0-28.055-6.486-28.055-19.031c0-12.499,12.571-22.707,28.055-22.707
								C285.82,575.686,298.387,585.894,298.387,598.393z"/>
							<path fill="#FFFFFF" stroke="#000000" d="M294.75,606.952c0,13.344-10.942,24.141-24.466,24.141
								c-13.524,0-24.466-10.797-24.466-24.141c0-13.296,10.941-24.143,24.466-24.143C283.808,582.81,294.75,593.656,294.75,606.952
								z"/>
							<path fill="#FFFFFF" stroke="#000000" d="M292.014,607.641c0,11.805-9.703,21.432-21.729,21.432
								c-11.974,0-21.678-9.627-21.678-21.432c0-11.855,9.704-21.427,21.678-21.427
								C282.311,586.214,292.014,595.785,292.014,607.641z"/>
							<path fill="#FFFFFF" stroke="#000000" d="M285.639,600.995c0,6.915-6.865,12.552-15.354,12.552
								c-8.44,0-15.306-5.637-15.306-12.552c0-6.856,6.865-12.493,15.306-12.493C278.773,588.502,285.639,594.139,285.639,600.995z"
								/>
						</g>
						<g>
							<g>
								<path fill="#FFFFFF" stroke="#000000" d="M211.339,601.633c0.466,3.619-3.87,7.128-9.651,7.874
									c-5.781,0.742-10.787-1.597-11.2-5.216c-0.413-3.615,3.923-7.126,9.652-7.812
									C205.92,595.734,210.926,598.018,211.339,601.633z"/>
								<path fill="#FFFFFF" stroke="#000000" d="M209.893,601.42c0.363,2.978-3.404,5.961-8.359,6.598
									c-5.008,0.638-9.342-1.276-9.654-4.257c-0.359-3.029,3.355-5.956,8.363-6.596
									C205.197,596.528,209.533,598.443,209.893,601.42z"/>
								<path fill="#FFFFFF" stroke="#000000" d="M207.778,600.995c0.258,2.29-2.633,4.469-6.503,5.003
									c-3.872,0.474-7.175-0.96-7.484-3.195c-0.26-2.233,2.685-4.466,6.503-4.998C204.165,597.379,207.52,598.762,207.778,600.995
									z"/>
							</g>
							<g>
								<path fill="#FFFFFF" stroke="#000000" d="M350.133,604.291c-0.465,3.619-5.471,5.958-11.252,5.216
									c-5.729-0.746-10.065-4.255-9.652-7.874c0.465-3.615,5.472-5.898,11.252-5.154
									C346.21,597.165,350.547,600.676,350.133,604.291z"/>
								<path fill="#FFFFFF" stroke="#000000" d="M348.739,603.761c-0.362,2.98-4.696,4.895-9.652,4.257
									c-5.007-0.637-8.724-3.62-8.361-6.598c0.36-2.977,4.646-4.892,9.651-4.255C345.333,597.805,349.101,600.731,348.739,603.761
									z"/>
								<path fill="#FFFFFF" stroke="#000000" d="M346.779,602.803c-0.26,2.235-3.614,3.669-7.434,3.195
									c-3.871-0.534-6.762-2.713-6.504-5.003c0.258-2.233,3.613-3.616,7.434-3.19
									C344.146,598.337,347.036,600.569,346.779,602.803z"/>
							</g>
						</g>
						<g>
							<g>
								<path fill="#FFFFFF" stroke="#000000" d="M172.576,526.447l-1.393,1.226c-16.105,21.638-24.57,47.268-24.57,74.173
									c0,22.016,5.885,42.966,16.982,61.895l2.271,0.583c2.838-7.069,10.271-12.066,18.529-12.387c0.052,0,0.723-2.87,0.723-2.87
									c-8.258-14.569-11.872-30.415-11.872-47.221c0-28.288,11.614-54.556,33.086-73.272l-0.517-3.189
									C194.926,522.938,184.758,522.781,172.576,526.447z"/>
							</g>
							<path fill="#FFFFFF" stroke="#000000" d="M152.859,633.694c-6.039-37.592,5.265-77.684,30.97-107.991
								c-2.942,0.376-5.937,0.957-8.93,1.701C152.498,558.352,144.188,597.697,152.859,633.694z"/>
							<g>
								<path fill="#FFFFFF" stroke="#000000" d="M334.804,525.384l-0.567,3.189c21.522,18.717,33.136,44.984,33.136,73.272
									c0,16.806-3.664,32.651-11.871,47.221c0,0,0.671,2.87,0.723,2.87c8.258,0.32,15.69,5.317,18.53,12.387l2.271-0.583
									c11.097-18.929,16.981-39.879,16.981-61.895c0-26.905-8.516-52.535-24.569-74.173l-1.394-1.226
									C355.861,522.781,345.693,522.938,334.804,525.384z"/>
							</g>
							<path fill="#FFFFFF" stroke="#000000" d="M387.76,633.694c5.988-37.592-5.315-77.684-30.969-107.991
								c2.942,0.376,5.936,0.957,8.93,1.701C388.121,558.352,396.38,597.697,387.76,633.694z"/>
							<path fill="#FFFFFF" stroke="#000000" d="M182.951,650.129c-8.414-14.462-13.214-31.216-13.214-49.134
								c0-30.096,13.575-57.003,34.995-74.974c-3.974-0.85-8.052-1.276-12.232-1.276c-21.781,20.583-35.408,49.663-35.408,81.938
								c0,18.137,4.284,35.257,11.924,50.465C172.371,653.213,177.428,650.555,182.951,650.129z"/>
							<path fill="#FFFFFF" stroke="#000000" d="M357.669,650.129c8.413-14.462,13.214-31.216,13.214-49.134
								c0-30.096-13.627-57.003-34.996-74.974c3.975-0.85,8.052-1.276,12.232-1.276c21.782,20.583,35.409,49.663,35.409,81.938
								c0,18.137-4.336,35.257-11.976,50.465C368.198,653.213,363.141,650.555,357.669,650.129z"/>
						</g>
					</g>
				</g>
				<path fill="#686868" d="M612.154,1209.127c0,0-26.036-354.447-26.941-363.168c-0.799-7.656-4.773-10.314-12.153-10.314
					c-7.409,0-111.001,0-118.405,0c-7.408,0-11.355,2.658-12.158,10.314c-0.9,8.721-26.942,363.168-26.942,363.168H612.154z"/>
				<linearGradient id="SVGID_9_" gradientUnits="userSpaceOnUse" x1="513.8691" y1="838.7256" x2="513.8691" y2="1206.2318">
					<stop  offset="0" style="stop-color:#868686"/>
					<stop  offset="1" style="stop-color:#686868"/>
				</linearGradient>
				<path fill="url(#SVGID_9_)" d="M588.492,1204.235c0,0-19.77-340.94-20.468-350.193c-0.591-8.132-4.179-12.704-14.35-12.704
					c-5.624,0-73.963,0-79.59,0c-10.191,0-13.753,4.572-14.373,12.704c-0.671,9.253-20.467,350.193-20.467,350.193H588.492z"/>
				<path fill="#686868" d="M554.632,1005.903c0.231,9.202-6.916,16.753-15.872,16.753h-49.758c-8.953,0-16.104-7.551-15.897-16.753
					l1.136-47.325c0.207-9.251,7.718-16.801,16.672-16.801h45.937c8.958,0,16.44,7.55,16.672,16.801L554.632,1005.903z"/>
				<path fill="#494949" d="M545.16,1003.243c0.181,7.075-5.316,12.868-12.181,12.868h-38.196c-6.889,0-12.36-5.793-12.206-12.868
					l0.878-36.312c0.156-7.074,5.908-12.868,12.801-12.868h35.254c6.864,0,12.644,5.794,12.798,12.868L545.16,1003.243z"/>
				<g>
					<g>
						<path fill="#FFFFFF" stroke="#000000" stroke-miterlimit="10" d="M-364.635,815.865c0,0,91.359-46.203,190.949-96.987
							C-87.1,674.746-22.219,645.132-7.715,640.502c12.875-4.091,23.175,0.27,28.645,14.038
							c6.735,16.908,13.961,85.131,6.453,116.445c-8.904,37.222-62.919,126.232-128.006,200.142
							c-64.106,72.798-128.934,128.572-175.003,150.853c-37.421,18.13-88.39,12.598-88.39,12.598L-364.635,815.865z"/>
						<path fill="#FFFFFF" stroke="#000000" stroke-miterlimit="10" d="M-364.635,1093.586c0,0,65.678,16.108,128.831-25.471
							c85.448-56.307,221.997-207.849,255.468-297.66c14.79-39.667,1.266-115.915,1.266-115.915
							c6.735,16.908,13.961,85.131,6.453,116.445c-8.904,37.222-62.919,126.232-128.006,200.142
							c-64.106,72.798-128.934,128.572-175.003,150.853c-37.421,18.13-88.39,12.598-88.39,12.598L-364.635,1093.586z"/>
						<path fill="#FFFFFF" stroke="#000000" stroke-miterlimit="10" d="M-84.726,754.665c16.774-28.5,20.67-68.271,18.812-75.503
							c-0.928-3.672-4.256-7.074-8.309-9.309c-27.306,12.924-61.268,29.563-99.463,49.024
							c-99.59,50.784-190.949,96.987-190.949,96.987l0.385,205.301c11.591-8.72,61.553-46.74,107.388-88.429
							C-200.268,881.322-100.777,781.892-84.726,754.665z"/>
						<path fill="#FFFFFF" stroke="#000000" stroke-miterlimit="10" d="M-65.914,679.162c-0.928-3.672-4.256-7.074-8.309-9.309
							c-27.306,12.924-61.268,29.563-99.463,49.024c-99.59,50.784-190.949,96.987-190.949,96.987l0.385,32.115
							C-268.504,801.989-64.056,686.394-65.914,679.162z"/>
						<path fill="#FFFFFF" stroke="#000000" stroke-miterlimit="10" d="M-364.222,1036.479
							c23.847-18.609,70.454-55.889,109.89-93.106c55.664-52.535,158.304-154.731,175.182-183.339
							c17.031-28.819,20.876-60.559,22.115-67.365c1.135-6.382,1.988-9.891,7.77-12.762c7.896-3.885,42.996-21.057,49.523-21.694
							c7.305-0.693,11.743,2.709,15.15,9.303c3.975,7.712,9.031,38.766,2.787,68.91c-6.246,30.096-54.35,105.6-110.432,168.507
							c-56.079,62.899-113.371,118.304-171.903,133.675C-322.699,1053.92-364.222,1036.479-364.222,1036.479z"/>
						<path fill="#FFFFFF" stroke="#000000" stroke-miterlimit="10" d="M-364.222,1036.479
							c23.847-18.609,70.454-55.889,109.89-93.106C-130.536,928.591-9.24,770.938,5.291,735.843
							c12.051-29.137,10.117-68.328,10.117-68.328c3.975,7.712,9.031,38.766,2.787,68.91c-6.246,30.096-54.35,105.6-110.432,168.507
							c-56.079,62.899-113.371,118.304-171.903,133.675C-322.699,1053.92-364.222,1036.479-364.222,1036.479z"/>
						<path fill="#FFFFFF" stroke="#000000" stroke-miterlimit="10" d="M-208.241,784.491c4.233-7.812,49.937-33.121,54.713-30.201
							c4.749,2.978,1.343,31.961-8.724,49.827c-12.156,21.53-99.902,92.888-137.942,110.33
							c-32.674,14.943-64.234,12.227-64.234,12.227v-58.326c0,0,43.616-26.159,51.538-26.159s19.021,18.766,34.092,16.531
							c15.072-2.177,57.345-27.06,64.75-42.854C-207.569,802.04-212.37,792.1-208.241,784.491z"/>
						<path fill="#FFFFFF" stroke="#000000" stroke-miterlimit="10" d="M-208.241,784.491c4.233-7.812,49.937-33.121,54.713-30.201
							c4.749,2.978,1.343,31.961-8.724,49.827c-12.156,21.53-99.902,92.888-137.942,110.33
							c-32.674,14.943-64.234,12.227-64.234,12.227v-58.326c0,0,41.241,18.979,73.989,12.492
							c33.809-6.75,86.689-47.372,94.094-63.167C-189.865,803.797-212.37,792.1-208.241,784.491z"/>
					</g>
					<g>
						<g>
							<path fill="#FFFFFF" stroke="#000000" stroke-miterlimit="10" d="M-364.635,139.354v630.251
								c0,0,360.172-164.461,396.584-184.031c18.609-9.996,20.777-23.338,7.821-46.153
								C24.413,512.409-104.16,272.232-364.635,139.354z"/>
							<path fill="#FFFFFF" stroke="#000000" stroke-miterlimit="10" d="M-364.635,151.584v589.732
								c0,0,348.764-153.025,380.893-168.234c18.272-8.67,19.975-22.12,7.512-43.814C9.033,503.691-114.455,277.549-364.635,151.584
								z"/>
							<path fill="#FFFFFF" stroke="#000000" stroke-miterlimit="10" d="M-364.635,172.269v558.094
								c0,0,337.588-144.788,368.712-159.192c17.681-8.19,19.331-20.951,7.255-41.426C-2.943,505.5-122.456,291.534-364.635,172.269
								z"/>
							<path fill="#FFFFFF" stroke="#000000" stroke-miterlimit="10" d="M-364.635,183.701v530.342
								c0,0,331.215-137.239,361.743-151.063c17.344-7.82,18.944-20.05,7.124-39.723
								C-9.779,500.024-127.026,298.073-364.635,183.701z"/>
							<path fill="#FFFFFF" stroke="#000000" stroke-miterlimit="10" d="M-364.635,396.069v317.974
								c0,0,331.215-137.239,361.743-151.063C-2.892,562.979-107.23,447.808-364.635,396.069z"/>
						</g>
						<g>
							<g>
								<path fill="#FFFFFF" stroke="#000000" stroke-miterlimit="10" d="M-14.814,522.938c0,0-11.406-2.339-24.49-7.444
									c-9.938-3.877-12.568-5.792-19.898-18.658c-6.967-12.288-12.077-21.802-24.025-26.537
									c-12.467-4.943-41.783-3.296-66.352,1.276c-24.054,4.521-42.119,10.635-51.255,21.964
									c-8.747,10.847-13.06,37.056-12.31,49.556c0.799,13.449,5.186,20.1,17.213,22.594c14.222,2.979,75.541,2.66,97.425,4.787
									c22.608,2.182,28.13,3.353,49.188,12.229L-14.814,522.938z"/>
								<path fill="#FFFFFF" stroke="#000000" stroke-miterlimit="10" d="M-14.814,522.938c0,0-11.406-2.339-24.49-7.444
									c-9.938-3.877-12.568-5.792-19.898-18.658c-6.967-12.288-12.077-21.802-24.025-26.537
									c-12.467-4.943-41.783-3.296-66.352,1.276c-24.054,4.521-42.119,10.635-51.255,21.964
									c-8.747,10.847-13.06,37.056-12.31,49.556c0,0,8.156-29.195,26.891-38.178c20.441-9.733,69.293-11.804,91.723-3.084
									c22.115,8.613,39.382,27.225,71.279,36.476L-14.814,522.938z"/>
								<path fill="#FFFFFF" stroke="#000000" stroke-miterlimit="10" d="M-191.879,492.048
									c-12.672,9.408-16.362,33.179-16.568,46.048c-0.183,13.186,3.871,19.829,13.162,22.758
									c11.047,3.401,85.99,3.878,99.308,2.552c13.317-1.276,20.103-6.486,22.144-18.291c2.321-13.351,2.581-53.278-15.072-64.232
									C-106.559,469.98-178.046,481.677-191.879,492.048z"/>
								<path fill="#FFFFFF" stroke="#000000" stroke-miterlimit="10" d="M-189.4,494.494c-11.666,8.401-15.1,29.506-15.279,40.888
									c-0.206,11.754,3.535,17.602,12.078,20.203c10.168,3.035,79.127,3.354,91.383,2.128c12.262-1.17,18.531-5.792,20.44-16.271
									c2.144-11.804,2.401-47.266-13.833-56.942C-110.818,474.82-176.628,485.349-189.4,494.494z"/>
								<path fill="#FFFFFF" stroke="#000000" stroke-miterlimit="10" d="M-185.402,497.79c-10.994,7.6-14.247,26.694-14.453,37.011
									c-0.205,10.575,3.305,15.893,11.383,18.183c9.549,2.765,74.557,2.921,86.119,1.858c11.538-1.114,17.445-5.317,19.28-14.783
									c2.013-10.684,2.322-42.75-12.955-51.47C-111.307,479.819-173.349,489.44-185.402,497.79z"/>
								<path fill="#FFFFFF" stroke="#000000" stroke-miterlimit="10" d="M-193.248,531.715c-4.129,8.98,0.465,16.165,8.027,18.341
									c8.982,2.553,70.042,2.715,80.881,1.702c10.84-1.008,16.93-6.807,16.336-16.747c-0.645-10.847-10.529-24.091-41.215-25.579
									C-159.619,507.944-188.575,521.449-193.248,531.715z"/>
							</g>
							<path fill="#FFFFFF" stroke="#000000" stroke-miterlimit="10" d="M-40.982,455.412c0,0,12.414,1.381,18.351,6.964
								c4.853,4.626,43.483,69.551,47.177,79.6c3.895,10.633,2.604,19.409-6.865,24.775c-9.498,5.481-40.932,20.05-48.082,20.688
								c-6.09,0.582-18.916-4.735-18.916-4.735S-49.447,520.867-40.982,455.412z"/>
							<path fill="#FFFFFF" stroke="#000000" stroke-miterlimit="10" d="M-22.632,462.376c4.853,4.626,43.483,69.551,47.177,79.6
								c3.895,10.633,2.604,19.409-6.865,24.775c-9.498,5.481-40.932,20.05-48.082,20.688
								C-30.402,587.439-30.402,514.217-22.632,462.376z"/>
						</g>
					</g>
					<g>
						<path fill="#FFFFFF" stroke="#000000" stroke-miterlimit="10" d="M1392.397,815.865c0,0-91.357-46.203-190.976-96.987
							c-86.559-44.132-151.438-73.746-165.943-78.376c-12.902-4.091-23.174,0.27-28.645,14.038
							c-6.763,16.908-13.989,85.131-6.454,116.445c8.88,37.222,62.919,126.232,128.008,200.142
							c64.106,72.798,128.934,128.572,174.975,150.853c37.423,18.13,88.417,12.598,88.417,12.598L1392.397,815.865z"/>
						<path fill="#FFFFFF" stroke="#000000" stroke-miterlimit="10" d="M1392.397,1093.586c0,0-65.704,16.108-128.882-25.471
							c-85.424-56.307-221.945-207.849-255.444-297.66c-14.761-39.667-1.237-115.915-1.237-115.915
							c-6.763,16.908-13.989,85.131-6.454,116.445c8.88,37.222,62.919,126.232,128.008,200.142
							c64.106,72.798,128.934,128.572,174.975,150.853c37.423,18.13,88.417,12.598,88.417,12.598L1392.397,1093.586z"/>
						<path fill="#FFFFFF" stroke="#000000" stroke-miterlimit="10" d="M1112.49,754.665c-16.775-28.5-20.698-68.271-18.841-75.503
							c0.929-3.672,4.283-7.074,8.311-9.309c27.306,12.924,61.267,29.563,99.462,49.024
							c99.618,50.784,190.976,96.987,190.976,96.987l-0.413,205.301c-11.561-8.72-61.523-46.74-107.358-88.429
							C1228.004,881.322,1128.541,781.892,1112.49,754.665z"/>
						<path fill="#FFFFFF" stroke="#000000" stroke-miterlimit="10" d="M1093.649,679.162c0.929-3.672,4.283-7.074,8.311-9.309
							c27.306,12.924,61.267,29.563,99.462,49.024c99.618,50.784,190.976,96.987,190.976,96.987l-0.413,32.115
							C1296.239,801.989,1091.792,686.394,1093.649,679.162z"/>
						<path fill="#FFFFFF" stroke="#000000" stroke-miterlimit="10" d="M1391.984,1036.479
							c-23.845-18.609-70.453-55.889-109.888-93.106c-55.691-52.535-158.302-154.731-175.183-183.339
							c-17.031-28.819-20.904-60.559-22.143-67.365c-1.134-6.382-1.961-9.891-7.742-12.762c-7.896-3.885-42.994-21.057-49.55-21.694
							c-7.278-0.693-11.717,2.709-15.123,9.303c-3.976,7.712-9.031,38.766-2.787,68.91c6.247,30.096,54.351,105.6,110.404,168.507
							c56.106,62.899,113.397,118.304,171.931,133.675C1350.436,1053.92,1391.984,1036.479,1391.984,1036.479z"/>
						<path fill="#FFFFFF" stroke="#000000" stroke-miterlimit="10" d="M1391.984,1036.479
							c-23.845-18.609-70.453-55.889-109.888-93.106c-123.823-14.781-245.12-172.435-259.626-207.529
							c-12.076-29.137-10.114-68.328-10.114-68.328c-3.976,7.712-9.031,38.766-2.787,68.91
							c6.247,30.096,54.351,105.6,110.404,168.507c56.106,62.899,113.397,118.304,171.931,133.675
							C1350.436,1053.92,1391.984,1036.479,1391.984,1036.479z"/>
						<path fill="#FFFFFF" stroke="#000000" stroke-miterlimit="10" d="M1236.006,784.491c-4.233-7.812-49.966-33.121-54.713-30.201
							c-4.749,2.978-1.344,31.961,8.723,49.827c12.131,21.53,99.876,92.888,137.916,110.33
							c32.672,14.943,64.263,12.227,64.263,12.227v-58.326c0,0-43.616-26.159-51.565-26.159c-7.897,0-18.993,18.766-34.066,16.531
							c-15.072-2.177-57.344-27.06-64.776-42.854C1235.333,802.04,1240.136,792.1,1236.006,784.491z"/>
						<path fill="#FFFFFF" stroke="#000000" stroke-miterlimit="10" d="M1236.006,784.491c-4.233-7.812-49.966-33.121-54.713-30.201
							c-4.749,2.978-1.344,31.961,8.723,49.827c12.131,21.53,99.876,92.888,137.916,110.33
							c32.672,14.943,64.263,12.227,64.263,12.227v-58.326c0,0-41.242,18.979-74.019,12.492
							c-33.809-6.75-86.662-47.372-94.093-63.167C1217.63,803.797,1240.136,792.1,1236.006,784.491z"/>
					</g>
					<g>
						<g>
							<path fill="#FFFFFF" stroke="#000000" stroke-miterlimit="10" d="M1392.397,139.354v630.251
								c0,0-360.17-164.461-396.608-184.031c-18.581-9.996-20.752-23.338-7.796-46.153
								C1003.325,512.409,1131.897,272.232,1392.397,139.354z"/>
							<path fill="#FFFFFF" stroke="#000000" stroke-miterlimit="10" d="M1392.397,151.584v589.732
								c0,0-348.761-153.025-380.919-168.234c-18.273-8.67-19.976-22.12-7.484-43.814
								C1018.704,503.691,1142.221,277.549,1392.397,151.584z"/>
							<path fill="#FFFFFF" stroke="#000000" stroke-miterlimit="10" d="M1392.397,172.269v558.094
								c0,0-337.613-144.788-368.737-159.192c-17.653-8.19-19.306-20.951-7.225-41.426
								C1030.68,505.5,1150.221,291.534,1392.397,172.269z"/>
							<path fill="#FFFFFF" stroke="#000000" stroke-miterlimit="10" d="M1392.397,183.701v530.342
								c0,0-331.214-137.239-361.769-151.063c-17.344-7.82-18.945-20.05-7.123-39.723
								C1037.545,500.024,1154.763,298.073,1392.397,183.701z"/>
							<path fill="#FFFFFF" stroke="#000000" stroke-miterlimit="10" d="M1392.397,396.069v317.974
								c0,0-331.214-137.239-361.769-151.063C1030.629,562.979,1134.993,447.808,1392.397,396.069z"/>
						</g>
						<g>
							<g>
								<path fill="#FFFFFF" stroke="#000000" stroke-miterlimit="10" d="M1042.551,522.938c0,0,11.405-2.339,24.516-7.444
									c9.912-3.877,12.544-5.792,19.871-18.658c6.971-12.288,12.08-21.802,24.056-26.537c12.438-4.943,41.757-3.296,66.325,1.276
									c24.055,4.521,42.118,10.635,51.255,21.964c8.772,10.847,13.059,37.056,12.335,49.556
									c-0.826,13.449-5.212,20.1-17.241,22.594c-14.192,2.979-75.512,2.66-97.396,4.787c-22.607,2.182-28.13,3.353-49.189,12.229
									L1042.551,522.938z"/>
								<path fill="#FFFFFF" stroke="#000000" stroke-miterlimit="10" d="M1042.551,522.938c0,0,11.405-2.339,24.516-7.444
									c9.912-3.877,12.544-5.792,19.871-18.658c6.971-12.288,12.08-21.802,24.056-26.537c12.438-4.943,41.757-3.296,66.325,1.276
									c24.055,4.521,42.118,10.635,51.255,21.964c8.772,10.847,13.059,37.056,12.335,49.556c0,0-8.156-29.195-26.943-38.178
									c-20.387-9.733-69.266-11.804-91.668-3.084c-22.144,8.613-39.384,27.225-71.281,36.476L1042.551,522.938z"/>
								<path fill="#FFFFFF" stroke="#000000" stroke-miterlimit="10" d="M1219.645,492.048
									c12.644,9.408,16.361,33.179,16.567,46.048c0.155,13.186-3.872,19.829-13.216,22.758
									c-11.045,3.401-85.937,3.878-99.307,2.552c-13.265-1.276-20.077-6.486-22.143-18.291
									c-2.271-13.351-2.529-53.278,15.125-64.232C1134.323,469.98,1205.81,481.677,1219.645,492.048z"/>
								<path fill="#FFFFFF" stroke="#000000" stroke-miterlimit="10" d="M1217.164,494.494
									c11.666,8.401,15.073,29.506,15.279,40.888c0.207,11.754-3.562,17.602-12.079,20.203
									c-10.167,3.035-79.125,3.354-91.407,2.128c-12.234-1.17-18.532-5.792-20.44-16.271c-2.116-11.804-2.376-47.266,13.83-56.942
									C1138.555,474.82,1204.363,485.349,1217.164,494.494z"/>
								<path fill="#FFFFFF" stroke="#000000" stroke-miterlimit="10" d="M1213.139,497.79c10.996,7.6,14.246,26.694,14.452,37.011
									c0.206,10.575-3.303,15.893-11.355,18.183c-9.546,2.765-74.583,2.921-86.146,1.858c-11.51-1.114-17.444-5.317-19.252-14.783
									c-2.012-10.684-2.321-42.75,12.957-51.47C1139.071,479.819,1201.113,489.44,1213.139,497.79z"/>
								<path fill="#FFFFFF" stroke="#000000" stroke-miterlimit="10" d="M1220.984,531.715c4.13,8.98-0.465,16.165-8,18.341
									c-8.98,2.553-70.043,2.715-80.881,1.702c-10.84-1.008-16.932-6.807-16.36-16.747c0.67-10.847,10.528-24.091,41.238-25.579
									C1187.384,507.944,1216.341,521.449,1220.984,531.715z"/>
							</g>
							<path fill="#FFFFFF" stroke="#000000" stroke-miterlimit="10" d="M1068.719,455.412c0,0-12.387,1.381-18.322,6.964
								c-4.853,4.626-43.512,69.551-47.178,79.6c-3.923,10.633-2.631,19.409,6.866,24.775c9.497,5.481,40.931,20.05,48.054,20.688
								c6.091,0.582,18.943-4.735,18.943-4.735S1077.184,520.867,1068.719,455.412z"/>
							<path fill="#FFFFFF" stroke="#000000" stroke-miterlimit="10" d="M1050.396,462.376c-4.853,4.626-43.512,69.551-47.178,79.6
								c-3.923,10.633-2.631,19.409,6.866,24.775c9.497,5.481,40.931,20.05,48.054,20.688
								C1058.139,587.439,1058.139,514.217,1050.396,462.376z"/>
						</g>
					</g>
				</g>
				<g>
					<g>
						<path fill="#3F3F3F" d="M-52.879,1207.907h-66.48c0,0,14.012-76.464,16.207-88.479c2.22-11.969,3.586-15.206,12.67-22.547
							c9.112-7.288,24.339-17.971,24.339-17.971L-52.879,1207.907z"/>
						<g>
							<linearGradient id="SVGID_10_" gradientUnits="userSpaceOnUse" x1="186.8965" y1="1207.9072" x2="186.8965" y2="872.9957">
								<stop  offset="0" style="stop-color:#6C6C6C"/>
								<stop  offset="1" style="stop-color:#8E8E8E"/>
							</linearGradient>
							<path fill="url(#SVGID_10_)" d="M456.277,1110.604c10.323-66.736-0.566-161.327-13.109-185.416
								c-13.834-26.638-39.406-38.604-75.072-43.922c-58.662-8.826-199.803-12.975-264.064-6.005
								c-49.757,5.423-93.398,13.294-118.742,38.866c-25.315,25.578-53.267,83.642-63.229,133.838
								c-11.121,56.092-14.297,124.581,7.408,159.942h494.499C439.428,1183.178,450.188,1149.843,456.277,1110.604z"/>
							<linearGradient id="SVGID_11_" gradientUnits="userSpaceOnUse" x1="180.7695" y1="1030.8652" x2="180.7695" y2="1210.5723">
								<stop  offset="0" style="stop-color:#6C6C6C"/>
								<stop  offset="1" style="stop-color:#8E8E8E"/>
							</linearGradient>
							<path fill="url(#SVGID_11_)" d="M372.558,1054.821c0,0-64.182,0.908-172.911-2.553
								c-108.701-3.452-182.896-12.974-182.896-12.974l-27.768,168.612h329.586L372.558,1054.821z"/>
							<linearGradient id="SVGID_12_" gradientUnits="userSpaceOnUse" x1="-77.9355" y1="1043.1797" x2="48.4462" y2="1043.1797">
								<stop  offset="0" style="stop-color:#8E8E8E"/>
								<stop  offset="1" style="stop-color:#6C6C6C"/>
							</linearGradient>
							<path fill="url(#SVGID_12_)" d="M48.442,1044.562c8.309-35.045,24.438-132.826,29.628-166.11
								c-38.764,5.578-71.953,14.675-92.781,35.675c-25.315,25.578-53.267,83.642-63.229,133.838
								c-11.121,56.092-14.297,124.581,7.408,159.942h65.885C13.809,1158.882,39.072,1084.122,48.442,1044.562z"/>
							<linearGradient id="SVGID_13_" gradientUnits="userSpaceOnUse" x1="460.1133" y1="1044.5869" x2="329.744" y2="1044.5869">
								<stop  offset="0" style="stop-color:#8E8E8E"/>
								<stop  offset="1" style="stop-color:#6C6C6C"/>
							</linearGradient>
							<path fill="url(#SVGID_13_)" d="M456.277,1110.604c10.323-66.736-0.566-161.327-13.109-185.416
								c-13.834-26.638-39.406-38.604-75.072-43.922c0,0-12.801,94.279-24.26,173.236c-10.558,72.74-28.286,153.405-28.286,153.405
								h108.418C439.428,1183.178,450.188,1149.843,456.277,1110.604z"/>
							<path fill="#626262" d="M-60.312,1043.393c9.729-71.355,45.602-129.266,45.602-129.266
								c-25.315,25.578-53.267,83.642-63.229,133.838c-11.121,56.092-14.297,124.581,7.408,159.942h35.381
								C-59.978,1162.604-68.105,1100.656-60.312,1043.393z"/>
							<path fill="#626262" d="M456.277,1110.604c10.323-66.736-0.566-161.327-13.109-185.416c0,0,10.787,40.622,2.659,107.039
								c-8.131,66.253-29.06,130.217-70.069,175.681h48.21C439.428,1183.178,450.188,1149.843,456.277,1110.604z"/>
						</g>
						<path fill="#8F8F8F" d="M-28.774,1201.471c0,0-23.795-51.684-23.795-117.03c0-61.947,30.712-156.007,44.929-155.213
							C8.207,930.134-54.324,1086.25-28.774,1201.471z"/>
						<path fill="#8F8F8F" d="M375.396,1198.655c0,0,32.957-46.317,49.035-110.122c15.252-60.512,16.338-153.293,5.963-155.208
							C418.805,931.198,422.057,1090.979,375.396,1198.655z"/>
						<linearGradient id="SVGID_14_" gradientUnits="userSpaceOnUse" x1="214.5791" y1="897.5137" x2="195.4264" y2="1049.0021">
							<stop  offset="0" style="stop-color:#999999"/>
							<stop  offset="1" style="stop-color:#7C7C7C"/>
						</linearGradient>
						<path fill="url(#SVGID_14_)" d="M61.396,1032.119c0,0,13.187-102.729,50.195-121.764
							c35.924-18.504,183.338-17.285,205.662,4.196c26.428,25.416,14.89,130.06,14.89,130.06s-74.996-1.113-149.426-4.516
							C104.806,1036.529,61.396,1032.119,61.396,1032.119z"/>
					</g>
					<g>
						<path fill="#3F3F3F" d="M1080.592,1207.907h66.531c0,0-14.039-76.464-16.259-88.479c-2.167-11.969-3.561-15.206-12.646-22.547
							c-9.083-7.288-24.311-17.971-24.311-17.971L1080.592,1207.907z"/>
						<g>
							
								<linearGradient id="SVGID_15_" gradientUnits="userSpaceOnUse" x1="-2378.4331" y1="1207.9082" x2="-2378.4331" y2="872.9967" gradientTransform="matrix(-1 0 0 1 -1537.5859 0)">
								<stop  offset="0" style="stop-color:#6C6C6C"/>
								<stop  offset="1" style="stop-color:#8E8E8E"/>
							</linearGradient>
							<path fill="url(#SVGID_15_)" d="M571.457,1110.604c-10.32-66.736,0.57-161.327,13.112-185.416
								c13.832-26.638,39.406-38.604,75.072-43.922c58.663-8.826,199.831-12.975,264.091-6.005
								c49.757,5.423,93.372,13.294,118.715,38.866c25.344,25.578,53.268,83.642,63.229,133.838
								c11.148,56.092,14.297,124.581-7.381,159.942H603.771C588.31,1183.178,577.548,1149.843,571.457,1110.604z"/>
							
								<linearGradient id="SVGID_16_" gradientUnits="userSpaceOnUse" x1="-2384.5679" y1="1030.8682" x2="-2384.5679" y2="1210.5752" gradientTransform="matrix(-1 0 0 1 -1537.5859 0)">
								<stop  offset="0" style="stop-color:#6C6C6C"/>
								<stop  offset="1" style="stop-color:#8E8E8E"/>
							</linearGradient>
							<path fill="url(#SVGID_16_)" d="M655.18,1054.821c0,0,64.18,0.908,172.91-2.553c108.701-3.452,182.924-12.974,182.924-12.974
								l27.77,168.612H709.168L655.18,1054.821z"/>
							
								<linearGradient id="SVGID_17_" gradientUnits="userSpaceOnUse" x1="-2643.2729" y1="1043.1797" x2="-2516.9028" y2="1043.1797" gradientTransform="matrix(-1 0 0 1 -1537.5859 0)">
								<stop  offset="0" style="stop-color:#8E8E8E"/>
								<stop  offset="1" style="stop-color:#6C6C6C"/>
							</linearGradient>
							<path fill="url(#SVGID_17_)" d="M979.322,1044.562c-8.311-35.045-24.467-132.826-29.626-166.11
								c38.762,5.578,71.951,14.675,92.751,35.675c25.344,25.578,53.268,83.642,63.229,133.838
								c11.148,56.092,14.297,124.581-7.381,159.942h-65.914C1013.956,1158.882,988.666,1084.122,979.322,1044.562z"/>
							
								<linearGradient id="SVGID_18_" gradientUnits="userSpaceOnUse" x1="-2105.2075" y1="1044.5869" x2="-2235.5771" y2="1044.5869" gradientTransform="matrix(-1 0 0 1 -1537.5859 0)">
								<stop  offset="0" style="stop-color:#8E8E8E"/>
								<stop  offset="1" style="stop-color:#6C6C6C"/>
							</linearGradient>
							<path fill="url(#SVGID_18_)" d="M571.457,1110.604c-10.32-66.736,0.57-161.327,13.112-185.416
								c13.832-26.638,39.406-38.604,75.072-43.922c0,0,12.8,94.279,24.258,173.236c10.56,72.74,28.285,153.405,28.285,153.405
								H603.771C588.31,1183.178,577.548,1149.843,571.457,1110.604z"/>
							<path fill="#626262" d="M1088.075,1043.393c-9.755-71.355-45.628-129.266-45.628-129.266
								c25.344,25.578,53.268,83.642,63.229,133.838c11.148,56.092,14.297,124.581-7.381,159.942h-35.408
								C1087.714,1162.604,1095.869,1100.656,1088.075,1043.393z"/>
							<path fill="#626262" d="M571.457,1110.604c-10.32-66.736,0.57-161.327,13.112-185.416c0,0-10.79,40.622-2.659,107.039
								c8.131,66.253,29.059,130.217,70.07,175.681h-48.209C588.31,1183.178,577.548,1149.843,571.457,1110.604z"/>
						</g>
						<path fill="#8F8F8F" d="M1056.537,1201.471c0,0,23.744-51.684,23.744-117.03c0-61.947-30.709-156.007-44.904-155.213
							C1019.53,930.134,1082.089,1086.25,1056.537,1201.471z"/>
						<path fill="#8F8F8F" d="M652.34,1198.655c0,0-32.958-46.317-49.034-110.122c-15.255-60.512-16.339-153.293-5.964-155.208
							C608.933,931.198,605.679,1090.979,652.34,1198.655z"/>
						
							<linearGradient id="SVGID_19_" gradientUnits="userSpaceOnUse" x1="-2350.7314" y1="897.5127" x2="-2369.8838" y2="1048.9982" gradientTransform="matrix(-1 0 0 1 -1537.5859 0)">
							<stop  offset="0" style="stop-color:#999999"/>
							<stop  offset="1" style="stop-color:#7C7C7C"/>
						</linearGradient>
						<path fill="url(#SVGID_19_)" d="M966.315,1032.119c0,0-13.162-102.729-50.169-121.764
							c-35.926-18.504-183.339-17.285-205.664,4.196c-26.428,25.416-14.89,130.06-14.89,130.06s74.998-1.113,149.427-4.516
							C922.958,1036.529,966.315,1032.119,966.315,1032.119z"/>
					</g>
				</g>
				<path fill="#3F3F3F" d="M610.635,1209.233c16.931-25.417-12.439-193.335-29.369-213.06
					c-11.406-13.187-39.176-21.748-67.386-21.748c-28.231,0-56.001,8.562-67.382,21.748c-16.98,19.725-46.326,187.643-29.368,213.06
					H610.635z"/>
				<linearGradient id="SVGID_20_" gradientUnits="userSpaceOnUse" x1="513.8555" y1="984.7979" x2="513.8555" y2="1197.2186">
					<stop  offset="0" style="stop-color:#6C6C6C"/>
					<stop  offset="1" style="stop-color:#3F3F3F"/>
				</linearGradient>
				<path fill="url(#SVGID_20_)" d="M513.857,1194.451c31.742,0,61.445-8.296,68.361-20.1
					c11.976-20.468-8.774-156.056-20.75-171.959c-8.052-10.685-27.688-17.595-47.611-17.595c-19.951,0-39.564,6.91-47.617,17.595
					c-11.975,15.903-32.725,151.491-20.749,171.959C452.406,1186.155,482.086,1194.451,513.857,1194.451z"/>
				<path fill="#686868" d="M550.09,909.766c0.208,8.188-6.142,14.89-14.091,14.89h-44.233c-7.949,0-14.325-6.701-14.119-14.89
					l1.009-42.056c0.178-8.245,6.837-14.943,14.813-14.943h40.826c7.949,0,14.609,6.698,14.815,14.943L550.09,909.766z"/>
				<path fill="#494949" d="M538.734,907.06c0.127,5.635-4.232,10.258-9.702,10.258h-30.378c-5.443,0-9.807-4.623-9.677-10.258
					l0.671-28.878c0.128-5.637,4.722-10.21,10.193-10.21h28.027c5.471,0,10.039,4.573,10.167,10.21L538.734,907.06z"/>
				<g>
					<path fill="#3F3F3F" d="M520.566,881.479c0,5.637-13.42,5.637-13.42,0v-31.739c0-5.637,13.42-5.637,13.42,0V881.479z"/>
					<path fill="#545454" d="M517.728,881.534c0,3.028-7.743,3.028-7.743,0v-28.392c0-3.035,7.743-3.035,7.743,0V881.534z"/>
					<path fill="#494949" d="M521.65,857.396c1.573-3.509,0.746-12.02,3.458-19.094c2.53-6.643,10.554-12.492,10.554-21.589
						c0-9.146-11.253-14.937-21.805-14.937c-10.558,0-21.811,5.791-21.811,14.937c0,9.097,8.029,14.946,10.558,21.589
						c2.708,7.074,1.882,15.585,3.431,19.094C507.662,860.954,520.051,860.954,521.65,857.396z"/>
					<path fill="#7C7C7C" d="M530.345,813.099c0,5.531-7.379,9.946-16.487,9.946c-9.112,0-16.494-4.415-16.494-9.946
						c0-5.472,7.382-9.939,16.494-9.939C522.966,803.159,530.345,807.627,530.345,813.099z"/>
					<linearGradient id="SVGID_21_" gradientUnits="userSpaceOnUse" x1="513.8555" y1="859.9883" x2="513.8555" y2="821.7187">
						<stop  offset="0" style="stop-color:#545454"/>
						<stop  offset="1" style="stop-color:#2B2B2B"/>
					</linearGradient>
					<path fill="url(#SVGID_21_)" d="M520.745,857.077c1.29-1.652,0.905-7.184,0.905-13.562c0-6.325,0.694-7.176,5.29-12.175
						c4.593-4.946,6.193-11.059,6.193-11.059s-7.561,8.024-19.276,8.024c-11.718,0-19.281-8.024-19.281-8.024
						s1.602,6.112,6.194,11.059c4.593,4.999,5.265,5.85,5.265,12.175c0,6.379-0.361,11.91,0.929,13.562
						C509.418,860.211,518.295,860.211,520.745,857.077z"/>
				</g>
			</g>
		</g>
		<g>
			<g>
				<g>
					<g>
						<path fill="#FFFFFF" d="M931.386,867.079c-2.71-2.316-22.334-19.076-26.462-22.172c-3.646-2.735-7.03-5.636-10.303-8.44
							c-7.23-6.197-14.061-12.051-22.695-15.351c-14.949-5.716-27.438-14.196-39.306-26.69c-4.552-4.791-9.668-10.31-15.084-16.151
							c-10.806-11.654-21.98-23.706-28.518-29.753c-6.434-5.951-10.078-14.422-13.007-21.229c-1.442-3.352-2.688-6.245-4.054-8.415
							c-1.102-1.75-2.072-3.393-3.011-4.98c-2.583-4.368-5.021-8.495-9.686-14.057c-4.466-5.323-8.04-12.683-10.405-17.553
							c-0.939-1.934-1.617-3.33-2.108-4.094c-1.349-2.097-1.712-10.016-0.95-14.009c0.833-4.372,1.581-7.688,1.953-8.656
							c0.432-1.12,0.957-2.179,0.963-2.189c0.119-0.239,0.138-0.518,0.05-0.771c-0.087-0.253-0.273-0.461-0.515-0.576
							c-0.076-0.036-7.606-3.651-9.703-6.753c-2.619-3.88-6.429-11.997-4.085-17.811l0.66-1.646c2.164-5.404,3.728-9.309,5.7-10.978
							c2.243-1.899,4.256-2.962,4.275-2.972c0.259-0.136,0.446-0.378,0.512-0.663c0.065-0.284,0.003-0.584-0.171-0.818
							c-0.032-0.044-3.272-4.445-4.122-7.33c-0.521-1.775-1.341-3.296-2.062-4.639c-0.575-1.067-1.118-2.076-1.394-3.007
							c-0.506-1.698-1.483-6.207,0.348-11.392c2.187-6.2,4.901-11.223,7.262-13.437c3.399-3.187,6.028-3.959,6.753-4.12
							c0.888-0.197,1.593-0.239,2.028-0.239c0.223,0,0.356,0.012,0.38,0.014c0.033,0.004,0.067,0.006,0.101,0.006
							c0.393,0,0.755-0.232,0.916-0.597c0.175-0.396,0.077-0.859-0.245-1.148c-0.033-0.029-3.281-2.978-5.582-7.982
							c-2.592-5.637-3.412-11.499-2.192-15.682c1.2-4.126,4.341-7.166,6.88-8.635c2.221-1.284,5.911-2.672,7.897-2.969
							c0.93-0.14,2.863-0.43,5.282-0.43c2.941,0,5.877,0.42,8.728,1.249c4.633,1.348,155.955,44.155,157.482,44.587
							c0.091,0.025,0.182,0.038,0.272,0.038c0.34,0,0.665-0.174,0.851-0.474l2.063-3.336c0.003,0,3.556-4.801,9.195-5.354
							c0.603-0.059,1.179-0.089,1.715-0.089c4.516,0,5.914,2.135,6.869,4.135c0.746,1.56,2.43,8.141,3.66,12.945
							c1.46,5.706,1.739,6.698,1.991,7.076c1.23,1.847,3.328,3.738,6.233,5.622c8.693,5.64,10.782,8.012,13.789,12.46
							c2.714,4.018,2.631,5.845,2.515,8.372l-0.017,0.366c-0.133,3.05,0.39,11.919,1.482,16.53c0.28,1.188,0.494,2.562,0.72,4.016
							c0.645,4.157,1.447,9.33,4.469,14.914c2.605,4.816,2.688,12.472,2.769,19.875c0.039,3.627,0.076,7.054,0.392,10.201
							c0.574,5.732,0.939,13.338,1.262,20.048c0.221,4.606,0.43,8.958,0.677,12.082c0.121,1.516,0.134,3.286,0.149,5.336
							c0.061,8.247,0.144,19.541,7.156,30.9c5.293,8.574,13.531,17.535,20.8,25.44c4.596,4.999,8.564,9.316,10.903,12.59
							c3.831,5.365,14.562,16.522,24.029,26.365c5.547,5.768,10.787,11.216,13.64,14.477c6.485,7.41,17.444,18.688,20.551,21.867
							l-23.938,16.072L931.386,867.079z"/>
						<path d="M767.688,529.766c2.846,0,5.688,0.407,8.447,1.211c4.636,1.349,155.962,44.156,157.49,44.589
							c0.18,0.051,0.363,0.075,0.544,0.075c0.681,0,1.33-0.348,1.701-0.948l2.019-3.264c0.359-0.472,3.543-4.472,8.486-4.957
							c0.57-0.056,1.114-0.084,1.618-0.084c3.938,0,5.069,1.687,5.968,3.567c0.703,1.47,2.441,8.265,3.592,12.761
							c1.623,6.34,1.795,6.882,2.129,7.382c1.307,1.962,3.501,3.949,6.521,5.907c8.988,5.831,10.724,8.067,13.504,12.182
							c2.529,3.743,2.456,5.343,2.345,7.766l-0.017,0.368c-0.135,3.099,0.396,12.114,1.508,16.804
							c0.272,1.151,0.482,2.506,0.705,3.939c0.656,4.232,1.475,9.501,4.578,15.236c2.487,4.6,2.568,12.129,2.647,19.409
							c0.038,3.49,0.077,7.1,0.396,10.291c0.571,5.707,0.937,13.298,1.258,19.995c0.222,4.615,0.431,8.975,0.679,12.114
							c0.118,1.48,0.131,3.233,0.146,5.264c0.058,7.894,0.146,19.821,7.305,31.419c5.344,8.655,13.616,17.653,20.915,25.593
							c4.573,4.975,8.522,9.271,10.825,12.493c3.874,5.425,14.632,16.609,24.123,26.478c5.539,5.759,10.771,11.199,13.608,14.442
							c6.007,6.863,15.835,17.029,19.749,21.047l-22.689,15.233l-136.034,0.001c-3.568-3.05-22.2-18.949-26.23-21.972
							c-3.62-2.716-6.992-5.605-10.253-8.4c-7.299-6.255-14.191-12.163-22.989-15.525c-14.804-5.66-27.177-14.062-38.937-26.445
							c-4.548-4.786-9.662-10.302-15.076-16.141c-10.818-11.67-22.006-23.735-28.571-29.808
							c-6.278-5.808-9.876-14.171-12.768-20.891c-1.459-3.39-2.719-6.317-4.126-8.552c-1.095-1.739-2.062-3.375-2.996-4.957
							c-2.604-4.404-5.064-8.565-9.781-14.19c-4.386-5.229-7.928-12.521-10.271-17.347c-0.954-1.965-1.644-3.384-2.167-4.198
							c-1.108-1.723-1.569-9.294-0.809-13.281c0.984-5.166,1.641-7.799,1.903-8.481c0.414-1.075,0.92-2.095,0.925-2.104
							c0.239-0.48,0.275-1.036,0.101-1.543s-0.546-0.923-1.029-1.154c-2.838-1.354-7.873-4.291-9.305-6.409
							c-2.337-3.461-6.178-11.442-3.986-16.878l0.66-1.647c2.111-5.27,3.636-9.077,5.418-10.586
							c2.148-1.818,4.075-2.839,4.092-2.848c0.519-0.271,0.893-0.755,1.024-1.324c0.131-0.57,0.006-1.169-0.342-1.639
							c-0.878-1.187-3.302-4.76-3.966-7.018c-0.552-1.875-1.396-3.445-2.143-4.83c-0.573-1.065-1.068-1.985-1.315-2.819
							c-0.478-1.604-1.4-5.864,0.332-10.773c2.104-5.965,4.788-10.962,7.003-13.039c2.555-2.394,4.922-3.57,6.286-3.874
							c0.842-0.187,1.496-0.215,1.812-0.215c0.152,0,0.252,0.007,0.266,0.008c0.073,0.008,0.146,0.012,0.219,0.012
							c0.781,0,1.498-0.459,1.823-1.184c0.354-0.792,0.157-1.725-0.488-2.306c-0.03-0.027-3.138-2.86-5.341-7.656
							c-2.458-5.343-3.278-11.085-2.141-14.985c1.117-3.841,4.049-6.676,6.42-8.047c2.133-1.234,5.658-2.564,7.546-2.847
							C763.528,530.038,765.342,529.766,767.688,529.766 M767.688,527.766c-2.379,0-4.25,0.264-5.431,0.441
							c-2.162,0.323-5.945,1.759-8.251,3.093s-5.945,4.43-7.339,9.22c-1.397,4.793-0.184,11.102,2.244,16.38
							c2.425,5.276,5.823,8.31,5.823,8.31s-0.173-0.02-0.484-0.02c-0.472,0-1.26,0.044-2.245,0.263
							c-1.639,0.364-4.308,1.638-7.22,4.367c-2.912,2.73-5.702,8.675-7.521,13.833c-1.82,5.155-1.031,9.765-0.363,12.009
							c0.666,2.245,2.546,4.549,3.456,7.644c0.91,3.093,4.277,7.643,4.277,7.643s-2.093,1.092-4.459,3.095
							c-2.365,2.002-4.004,6.461-6.642,13.013c-2.64,6.549,1.91,15.376,4.185,18.744c2.275,3.367,10.101,7.096,10.101,7.096
							s-0.545,1.094-1.001,2.276c-0.454,1.182-1.273,5.004-2.002,8.827c-0.729,3.819-0.546,12.192,1.092,14.737
							c1.639,2.55,6.279,14.228,12.588,21.748c6.309,7.522,8.492,12.376,12.617,18.928c4.125,6.551,7.522,20.867,17.228,29.845
							c9.706,8.978,29.725,31.301,43.556,45.858c13.829,14.561,27.297,22.204,39.673,26.936
							c12.375,4.729,21.108,14.921,32.756,23.657c4.366,3.274,26.692,22.372,26.692,22.372l137.382-0.001l25.189-16.912
							c0,0-13.71-13.951-21.354-22.686c-7.644-8.736-31.543-32.271-37.608-40.765c-6.068-8.494-23.053-24.022-31.666-37.975
							c-8.613-13.953-6.551-28.146-7.159-35.79c-0.604-7.643-0.969-22.445-1.94-32.15c-0.972-9.706,0.728-23.052-3.275-30.452
							c-4.005-7.401-4.005-14.073-5.096-18.685c-1.092-4.609-1.577-13.466-1.456-16.257c0.121-2.789,0.364-4.852-2.669-9.341
							c-3.033-4.488-5.096-6.916-14.073-12.739c-4.027-2.611-5.46-4.61-5.945-5.339c-0.485-0.727-4.246-17.105-5.581-19.896
							c-1.193-2.499-2.972-4.704-7.772-4.704c-0.561,0-1.164,0.03-1.812,0.094c-6.188,0.607-9.948,5.823-9.948,5.823l-2.063,3.336
							c0,0-152.793-43.223-157.476-44.585C773.268,528.06,770.195,527.766,767.688,527.766L767.688,527.766z"/>
					</g>
				</g>
				<g>
					<path fill="#FFFFFF" stroke="#000000" stroke-miterlimit="10" d="M953.277,567.454c0,0-4.549,2.729-0.546,18.744
						c2.788,11.151,6.007,15.47,7.28,16.38s2.597-0.6,3.095-2.913c0.908-4.246-0.062-7.521-0.548-9.1
						c-0.484-1.577-1.273-5.276-2.728-10.008C958.373,575.826,955.463,566.727,953.277,567.454z"/>
				</g>
				<g>
					<path fill="#FFFFFF" stroke="#000000" stroke-miterlimit="10" d="M753.126,591.353c2.837-3.446,6.209-5.993,8.888-8.052
						c2.908-2.236,1.655-2.893,0.181-3.171c-1.476-0.279-8.998-0.979-13.045,3.862c-5.34,6.388-4.981,12.137-4.604,14.424
						c0.376,2.287,2.625,7.333,3.09,5.045C748.484,599.28,750.289,594.8,753.126,591.353z"/>
				</g>
				<g>
					<g>
						<path stroke="#FFFFFF" stroke-width="0.5" stroke-miterlimit="10" d="M769.497,646.777
							c-4.557-3.646-10.012-5.203-15.532-2.796c-0.948,0.415-0.129,1.799,0.811,1.388c4.788-2.088,9.66-0.597,13.585,2.543
							C769.16,648.553,770.305,647.425,769.497,646.777L769.497,646.777z"/>
					</g>
				</g>
				<g>
					<g>
						<path stroke="#FFFFFF" stroke-width="0.5" stroke-miterlimit="10" d="M769.941,571.066c-1.847-0.88-3.438-2.388-5.192-3.441
							c-2.595-1.556-5.508-2.591-8.56-2.491c-1.033,0.034-1.036,1.64,0,1.607c2.978-0.097,5.638,1.006,8.151,2.513
							c1.628,0.978,3.076,2.385,4.788,3.2C770.06,572.896,770.876,571.512,769.941,571.066L769.941,571.066z"/>
					</g>
				</g>
				<g>
					<g>
						<path stroke="#FFFFFF" stroke-width="0.5" stroke-miterlimit="10" d="M744.34,611.831c1.744,1.632,3.544,3.183,6.025,3.367
							c1.035,0.078,1.026-1.529,0-1.606c-2.002-0.148-3.497-1.594-4.889-2.896C744.722,609.988,743.582,611.121,744.34,611.831
							L744.34,611.831z"/>
					</g>
				</g>
				<g>
					<g>
						<path stroke="#FFFFFF" stroke-width="0.5" stroke-miterlimit="10" d="M756.582,687.308c5.389,1.741,11.745-0.858,13.364-6.508
							c0.285-0.996-1.266-1.419-1.55-0.427c-1.385,4.838-6.841,6.855-11.387,5.384C756.021,685.437,755.602,686.989,756.582,687.308
							L756.582,687.308z"/>
					</g>
				</g>
				<g>
					<g>
						<path stroke="#FFFFFF" stroke-width="0.5" stroke-miterlimit="10" d="M768.36,685.357c-1.045,1.341-2.428,2.241-4.013,2.826
							c-0.964,0.356-0.547,1.909,0.426,1.551c1.835-0.678,3.508-1.684,4.724-3.24C770.124,685.688,768.996,684.54,768.36,685.357
							L768.36,685.357z"/>
					</g>
				</g>
				<g>
					<g>
						<path stroke="#FFFFFF" stroke-width="0.5" stroke-miterlimit="10" d="M792.072,743.843c5.645-0.781,10.739-5.613,14.185-9.852
							c0.648-0.796-0.482-1.94-1.137-1.138c-3.298,4.058-8.074,8.691-13.476,9.44C790.622,742.434,791.06,743.984,792.072,743.843
							L792.072,743.843z"/>
					</g>
				</g>
				<g>
					<g>
						<path stroke="#FFFFFF" stroke-width="0.5" stroke-miterlimit="10" d="M802.072,744.363c2.591-2.246,4.812-4.747,6.029-7.998
							c0.365-0.97-1.189-1.388-1.549-0.427c-1.114,2.973-3.257,5.243-5.617,7.29C800.151,743.907,801.292,745.04,802.072,744.363
							L802.072,744.363z"/>
					</g>
				</g>
				<g>
					<g>
						<path d="M769.941,647.136c-0.469-0.241-0.814-0.493-1.173-0.844c-0.312-0.307-0.824-0.312-1.136,0
							c-0.308,0.308-0.312,0.829,0,1.137c0.44,0.433,0.947,0.813,1.496,1.097c0.391,0.199,0.87,0.104,1.1-0.289
							C770.441,647.874,770.33,647.338,769.941,647.136L769.941,647.136z"/>
					</g>
				</g>
				<g>
					<g>
						<path d="M769.292,645.947c-0.283,0-0.565,0-0.849,0c-0.438,0-0.803,0.275-0.803,0.715c0,0.438,0.365,0.712,0.803,0.712
							c0.283,0,0.565,0,0.849,0c0.438,0,0.804-0.274,0.804-0.712C770.096,646.223,769.729,645.947,769.292,645.947L769.292,645.947z
							"/>
					</g>
				</g>
				<g>
					<g>
						<path d="M768.597,646.86c0,0.081,0,0.162,0,0.243c0,0.438,0.454,0.802,0.892,0.802c0.439,0,0.893-0.364,0.893-0.802
							c0-0.081,0-0.162,0-0.243c0-0.439-0.453-0.803-0.893-0.803C769.051,646.058,768.597,646.421,768.597,646.86L768.597,646.86z"
							/>
					</g>
				</g>
				<g>
					<g>
						<path d="M770.506,645.57c-0.631,0.02-1.216,0.253-1.74,0.597c-0.365,0.237-0.518,0.706-0.288,1.1
							c0.213,0.361,0.731,0.526,1.101,0.287c0.07-0.046,0.142-0.091,0.215-0.136c0.039-0.022,0.254-0.135,0.213-0.117
							c0.086-0.034,0.175-0.062,0.262-0.089c0.06-0.015,0.119-0.028,0.179-0.039c-0.062,0.013-0.041,0.015,0.06,0.005
							c0.438-0.014,0.804-0.355,0.804-0.803C771.31,645.947,770.943,645.558,770.506,645.57L770.506,645.57z"/>
					</g>
				</g>
				<g>
					<g>
						<path d="M769.452,614.748c-0.345,0.436-0.571,0.558-1.028,0.237c-0.359-0.251-0.891-0.066-1.099,0.289
							c-0.234,0.401-0.069,0.849,0.287,1.1c1.008,0.704,2.228,0.454,2.976-0.49c0.272-0.342,0.337-0.8,0-1.136
							C770.306,614.465,769.725,614.404,769.452,614.748L769.452,614.748z"/>
					</g>
				</g>
				<g>
					<g>
						<path stroke="#FFFFFF" stroke-width="0.5" stroke-miterlimit="10" d="M768.929,616.313c0.061,0,0.12,0,0.182,0
							c0.438,0,0.804-0.456,0.804-0.892c0-0.438-0.365-0.894-0.804-0.894c-0.062,0-0.121,0-0.182,0
							c-0.438,0-0.805,0.455-0.805,0.894C768.124,615.857,768.491,616.313,768.929,616.313L768.929,616.313z"/>
					</g>
				</g>
				<g>
					<g>
						<path stroke="#FFFFFF" stroke-width="0.5" stroke-miterlimit="10" d="M770.795,575.793c-0.221-1.553-0.776-3.011-1.537-4.377
							c-0.503-0.905-1.892-0.096-1.386,0.811c0.696,1.254,1.172,2.571,1.374,3.994C769.391,577.243,770.938,576.806,770.795,575.793
							L770.795,575.793z"/>
					</g>
				</g>
				<g>
					<g>
						<path d="M985.676,783.103c-8.747,9.51-21.165,14.285-32.961,18.796c-11.928,4.56-24.215,9.007-34.187,17.236
							c-0.8,0.662,0.344,1.79,1.136,1.138c10.281-8.485,23.146-12.849,35.415-17.568c11.425-4.393,23.275-9.268,31.732-18.463
							C987.513,783.479,986.379,782.342,985.676,783.103L985.676,783.103z"/>
					</g>
				</g>
				<g>
					<g>
						<path d="M971.301,783.288c-5.84,5.775-12.835,10.111-20.938,11.803c-1.015,0.212-0.583,1.759,0.427,1.549
							c8.357-1.742,15.625-6.259,21.646-12.216C973.174,783.694,972.037,782.56,971.301,783.288L971.301,783.288z"/>
					</g>
				</g>
				<g>
					<g>
						<path stroke="#FFFFFF" stroke-width="0.5" stroke-miterlimit="10" d="M926.171,737.838
							c12.114,13.712,28.332,26.303,47.73,23.132c1.021-0.163,0.587-1.714-0.427-1.546c-18.77,3.067-34.498-9.516-46.169-22.724
							C926.62,735.924,925.487,737.065,926.171,737.838L926.171,737.838z"/>
					</g>
				</g>
				<g>
					<g>
						<path stroke="#FFFFFF" stroke-width="0.5" stroke-miterlimit="10" d="M937.843,679.295
							c7.041,10.817,17.407,18.957,30.539,20.295c1.031,0.105,1.021-1.503,0-1.608c-12.528-1.273-22.45-9.2-29.15-19.497
							C938.668,677.619,937.275,678.422,937.843,679.295L937.843,679.295z"/>
					</g>
				</g>
				<g>
					<g>
						<path stroke="#FFFFFF" stroke-width="0.5" stroke-miterlimit="10" d="M938.208,685.24c1.82,2.506,3.946,4.72,6.312,6.713
							c0.787,0.661,1.929-0.467,1.137-1.134c-2.256-1.903-4.325-4-6.062-6.39C938.991,683.599,937.598,684.399,938.208,685.24
							L938.208,685.24z"/>
					</g>
				</g>
				<g>
					<g>
						<path stroke="#FFFFFF" stroke-width="0.5" stroke-miterlimit="10" d="M936.206,628.643
							c5.856,8.709,19.577,17.945,29.67,10.478c0.823-0.608,0.023-2.004-0.811-1.386c-9.337,6.906-22.067-1.866-27.473-9.904
							C937.019,626.977,935.626,627.779,936.206,628.643L936.206,628.643z"/>
					</g>
				</g>
				<g>
					<g>
						<path stroke="#FFFFFF" stroke-width="0.5" stroke-miterlimit="10" d="M952.368,647.859c-4.907-0.555-9.072-4.02-12.051-7.755
							c-0.646-0.81-1.774,0.335-1.135,1.136c3.277,4.112,7.832,7.62,13.186,8.227C953.396,649.582,953.385,647.977,952.368,647.859
							L952.368,647.859z"/>
					</g>
				</g>
				<g>
					<g>
						<path d="M877.756,821.568c4.248,1.013,8.797,1.228,12.629-1.172c0.877-0.547,0.071-1.938-0.81-1.388
							c-3.47,2.17-7.555,1.926-11.393,1.011C877.176,819.782,876.747,821.331,877.756,821.568L877.756,821.568z"/>
					</g>
				</g>
				<g>
					<path fill="#FFFFFF" stroke="#000000" stroke-miterlimit="10" d="M764.015,615.134c1.184-0.272,2.73-0.363,1.274-0.729
						c-1.456-0.363-6.552-0.909-9.827,0.182c-3.275,1.092-8.099,3.185-10.646,8.463c-1.689,3.501-1.546,9.373-0.182,10.554
						c0.587,0.511,1.183-3,1.547-3.912c0.364-0.91,2.988-5.448,7.916-9.554C758.465,616.498,764.015,615.134,764.015,615.134z"/>
				</g>
				<g>
					<g>
						<path stroke="#FFFFFF" stroke-width="0.5" stroke-miterlimit="10" d="M933.971,608.646c1.694,4.112,2.16,8.863,5.849,11.817
							c0.8,0.643,1.943-0.488,1.135-1.136c-3.447-2.763-3.849-7.262-5.434-11.109C935.131,607.273,933.576,607.686,933.971,608.646
							L933.971,608.646z"/>
					</g>
				</g>
				<g>
					<path fill="#FFFFFF" stroke="#000000" stroke-width="2" stroke-miterlimit="10" d="M934.975,701.604
						c0,14.054-11.598,25.39-25.811,25.39H795.937c-14.212,0-25.913-11.336-25.913-25.39v-27.933c0,0,2.913-9.22,2.913-16.015
						c0-6.794-2.913-9.342-2.913-9.342v-2.426c0,0,5.46-5.095,5.46-16.985c0-8.614-5.46-12.74-5.46-12.74v-2.185
						c0,0,4.368-4.124,4.368-17.468c0-13.347-4.368-19.049-4.368-19.049V430.756c0-14.056,11.701-25.451,25.913-25.451h113.228
						c14.213,0,25.811,11.396,25.811,25.451V572.55c0,0-3.273,7.824-3.273,17.105c0,9.283,3.273,18.564,3.273,18.564V701.604z"/>
				</g>
				<g>
					<path d="M878.563,428.869c0,0.985-0.799,1.784-1.785,1.784h-49.271c-0.986,0-1.785-0.799-1.785-1.784l0,0
						c0-0.986,0.799-1.786,1.785-1.786h49.271C877.765,427.083,878.563,427.883,878.563,428.869L878.563,428.869z"/>
				</g>
				<g>
					<path fill="#FFFFFF" stroke="#000000" stroke-miterlimit="10" d="M925.692,679.151c0,0.788-0.64,1.429-1.428,1.429H780.021
						c-0.789,0-1.429-0.641-1.429-1.429V452.433c0-0.789,0.64-1.429,1.429-1.429h144.243c0.788,0,1.428,0.64,1.428,1.429V679.151z"
						/>
				</g>
				<g>
					<path fill="#585858" d="M944.863,868.079c0,0,27.194-21.382,51.014-35.513c23.821-14.132,42.419-24.521,42.419-24.521
						c16.488-9.301,20.347-4.664,21.901-3.463l80.411,63.497H944.863z"/>
				</g>
				<g>
					<path d="M874.259,704.888c0,2.325-1.902,4.228-4.228,4.228h-36.358c-2.325,0-4.228-1.902-4.228-4.228v-2.536
						c0-2.325,1.902-4.229,4.228-4.229h36.358c2.325,0,4.228,1.903,4.228,4.229V704.888z"/>
				</g>
			</g>
			<g>
				<defs>
					<path id="SVGID_22_" d="M925.692,679.151c0,0.788-0.64,1.429-1.428,1.429H780.021c-0.789,0-1.429-0.641-1.429-1.429V452.433
						c0-0.789,0.64-1.429,1.429-1.429h144.243c0.788,0,1.428,0.64,1.428,1.429V679.151z"/>
				</defs>
				<clipPath id="SVGID_23_">
					<use xlink:href="#SVGID_22_"  overflow="visible"/>
				</clipPath>
			</g>
		</g>
		<g>
			<g>
				<path d="M541.832,217.454c0.037,0.433-0.146,0.783-0.406,0.783h-29.229c-0.258,0-0.431-0.35-0.383-0.783l1.6-14.673
					c0.047-0.433,0.273-0.785,0.506-0.785h26.218c0.233,0,0.451,0.352,0.485,0.785L541.832,217.454z"/>
				<path d="M541.832,217.454c0.037,0.433-0.146,0.783-0.406,0.783h-29.229c-0.258,0-0.431-0.35-0.383-0.783l1.6-14.673
					c0.047-0.433,0.273-0.785,0.506-0.785h26.218c0.233,0,0.451,0.352,0.485,0.785L541.832,217.454z"/>
			</g>
			<path d="M660.549,197.816c0.581,6.667-4.092,12.07-10.434,12.07H391.707c-6.343,0-10.896-5.403-10.172-12.07l6.57-60.35
				c0.727-6.667,6.154-12.07,12.125-12.07h243.202c5.968,0,11.279,5.403,11.86,12.07L660.549,197.816z"/>
			<path fill="#FFFFFF" stroke="#000000" stroke-width="1.1611" d="M653.164,193.173c0.462,5.615-4.039,10.167-10.057,10.167h-245.1
				c-6.018,0-10.417-4.552-9.83-10.167l5.314-50.833c0.587-5.616,5.695-10.166,11.412-10.166h232.896
				c5.719,0,10.726,4.55,11.188,10.166L653.164,193.173z"/>
		</g>
	</g>
</g>
</svg>
